<mxfile host="app.diagrams.net" agent="Mozilla/5.0 (Windows NT 10.0; Win64; x64) AppleWebKit/537.36 (KHTML, like Gecko) Chrome/131.0.0.0 Safari/537.36" version="25.0.1">
  <diagram name="Page-1" id="xhHiaBTqu4U3FcKYCK3W">
    <mxGraphModel dx="1473" dy="548" grid="0" gridSize="10" guides="1" tooltips="1" connect="1" arrows="1" fold="1" page="1" pageScale="1" pageWidth="827" pageHeight="1169" math="0" shadow="0">
      <root>
        <mxCell id="0" />
        <mxCell id="1" parent="0" />
        <mxCell id="WR9q7CcePwHXOaSWGCf5-2" value="" style="rounded=0;whiteSpace=wrap;html=1;strokeColor=#000000;strokeWidth=1;fillColor=none;fontSize=12;align=center;" vertex="1" parent="1">
          <mxGeometry x="100" y="100" width="980" height="730" as="geometry" />
        </mxCell>
        <mxCell id="WR9q7CcePwHXOaSWGCf5-3" value="" style="rounded=0;whiteSpace=wrap;html=1;dashed=1;strokeColor=#000000;fillColor=none;fontSize=10;align=center;perimeterSpacing=0;strokeWidth=1;" vertex="1" parent="1">
          <mxGeometry x="190" y="130" width="870" height="500" as="geometry" />
        </mxCell>
        <mxCell id="WR9q7CcePwHXOaSWGCf5-4" value="OPCODE [7:0]" style="text;html=1;align=left;verticalAlign=middle;resizable=0;points=[];autosize=1;fontSize=10;" vertex="1" parent="1">
          <mxGeometry x="230" y="270" width="80" height="20" as="geometry" />
        </mxCell>
        <mxCell id="WR9q7CcePwHXOaSWGCf5-5" style="edgeStyle=orthogonalEdgeStyle;rounded=0;orthogonalLoop=1;jettySize=auto;html=1;exitX=1;exitY=0.75;exitDx=0;exitDy=0;" edge="1" parent="1" source="WR9q7CcePwHXOaSWGCf5-10" target="WR9q7CcePwHXOaSWGCf5-14">
          <mxGeometry relative="1" as="geometry">
            <Array as="points">
              <mxPoint x="390" y="320" />
            </Array>
          </mxGeometry>
        </mxCell>
        <mxCell id="WR9q7CcePwHXOaSWGCf5-6" style="edgeStyle=orthogonalEdgeStyle;rounded=0;orthogonalLoop=1;jettySize=auto;html=1;exitX=0.75;exitY=1;exitDx=0;exitDy=0;entryX=1;entryY=0.5;entryDx=0;entryDy=0;fontSize=10;" edge="1" parent="1" source="WR9q7CcePwHXOaSWGCf5-10" target="WR9q7CcePwHXOaSWGCf5-26">
          <mxGeometry relative="1" as="geometry">
            <Array as="points">
              <mxPoint x="350" y="350" />
              <mxPoint x="350" y="420" />
              <mxPoint x="720" y="420" />
            </Array>
          </mxGeometry>
        </mxCell>
        <mxCell id="WR9q7CcePwHXOaSWGCf5-7" style="edgeStyle=orthogonalEdgeStyle;rounded=0;orthogonalLoop=1;jettySize=auto;html=1;exitX=0.5;exitY=1;exitDx=0;exitDy=0;entryX=1;entryY=0.5;entryDx=0;entryDy=0;fontSize=10;" edge="1" parent="1" source="WR9q7CcePwHXOaSWGCf5-10" target="WR9q7CcePwHXOaSWGCf5-33">
          <mxGeometry relative="1" as="geometry">
            <Array as="points">
              <mxPoint x="340" y="350" />
              <mxPoint x="340" y="430" />
              <mxPoint x="780" y="430" />
            </Array>
          </mxGeometry>
        </mxCell>
        <mxCell id="WR9q7CcePwHXOaSWGCf5-8" style="edgeStyle=orthogonalEdgeStyle;rounded=0;orthogonalLoop=1;jettySize=auto;html=1;exitX=0.25;exitY=1;exitDx=0;exitDy=0;fontSize=10;entryX=0.504;entryY=0.83;entryDx=0;entryDy=0;entryPerimeter=0;strokeWidth=2;" edge="1" parent="1" source="WR9q7CcePwHXOaSWGCf5-10" target="WR9q7CcePwHXOaSWGCf5-36">
          <mxGeometry relative="1" as="geometry">
            <Array as="points">
              <mxPoint x="330" y="440" />
              <mxPoint x="870" y="440" />
            </Array>
          </mxGeometry>
        </mxCell>
        <mxCell id="WR9q7CcePwHXOaSWGCf5-9" style="edgeStyle=orthogonalEdgeStyle;rounded=0;orthogonalLoop=1;jettySize=auto;html=1;entryX=0;entryY=0.5;entryDx=0;entryDy=0;" edge="1" parent="1" source="WR9q7CcePwHXOaSWGCf5-10" target="WR9q7CcePwHXOaSWGCf5-66">
          <mxGeometry relative="1" as="geometry">
            <Array as="points">
              <mxPoint x="380" y="460" />
              <mxPoint x="840" y="460" />
            </Array>
          </mxGeometry>
        </mxCell>
        <mxCell id="WR9q7CcePwHXOaSWGCf5-10" value="Control Unit" style="rounded=0;whiteSpace=wrap;html=1;" vertex="1" parent="1">
          <mxGeometry x="310" y="230" width="80" height="120" as="geometry" />
        </mxCell>
        <mxCell id="WR9q7CcePwHXOaSWGCf5-11" style="edgeStyle=orthogonalEdgeStyle;rounded=0;orthogonalLoop=1;jettySize=auto;html=1;exitX=1;exitY=0.25;exitDx=0;exitDy=0;entryX=0.25;entryY=1;entryDx=0;entryDy=0;strokeWidth=2;" edge="1" parent="1" source="WR9q7CcePwHXOaSWGCf5-14" target="WR9q7CcePwHXOaSWGCf5-26">
          <mxGeometry relative="1" as="geometry" />
        </mxCell>
        <mxCell id="WR9q7CcePwHXOaSWGCf5-12" style="edgeStyle=orthogonalEdgeStyle;rounded=0;orthogonalLoop=1;jettySize=auto;html=1;exitX=1;exitY=0.25;exitDx=0;exitDy=0;entryX=0;entryY=0.5;entryDx=0;entryDy=0;strokeWidth=2;" edge="1" parent="1" source="WR9q7CcePwHXOaSWGCf5-14" target="WR9q7CcePwHXOaSWGCf5-24">
          <mxGeometry relative="1" as="geometry">
            <Array as="points">
              <mxPoint x="620" y="250" />
              <mxPoint x="620" y="290" />
            </Array>
          </mxGeometry>
        </mxCell>
        <mxCell id="WR9q7CcePwHXOaSWGCf5-13" style="edgeStyle=orthogonalEdgeStyle;rounded=0;orthogonalLoop=1;jettySize=auto;html=1;exitX=1;exitY=0.75;exitDx=0;exitDy=0;entryX=-0.016;entryY=0.735;entryDx=0;entryDy=0;entryPerimeter=0;fontSize=10;strokeWidth=2;" edge="1" parent="1" source="WR9q7CcePwHXOaSWGCf5-14" target="WR9q7CcePwHXOaSWGCf5-36">
          <mxGeometry relative="1" as="geometry" />
        </mxCell>
        <mxCell id="WR9q7CcePwHXOaSWGCf5-14" value="8x8 Register File" style="rounded=0;whiteSpace=wrap;html=1;" vertex="1" parent="1">
          <mxGeometry x="530" y="210" width="80" height="160" as="geometry" />
        </mxCell>
        <mxCell id="WR9q7CcePwHXOaSWGCf5-15" style="edgeStyle=orthogonalEdgeStyle;rounded=0;orthogonalLoop=1;jettySize=auto;html=1;exitX=0;exitY=0.5;exitDx=0;exitDy=0;entryX=0;entryY=0.5;entryDx=0;entryDy=0;strokeWidth=2;" edge="1" parent="1" source="WR9q7CcePwHXOaSWGCf5-20" target="WR9q7CcePwHXOaSWGCf5-10">
          <mxGeometry relative="1" as="geometry">
            <Array as="points">
              <mxPoint x="291" y="710" />
              <mxPoint x="220" y="710" />
              <mxPoint x="220" y="290" />
            </Array>
          </mxGeometry>
        </mxCell>
        <mxCell id="WR9q7CcePwHXOaSWGCf5-16" style="edgeStyle=orthogonalEdgeStyle;rounded=0;orthogonalLoop=1;jettySize=auto;html=1;exitX=0;exitY=0.5;exitDx=0;exitDy=0;entryX=0;entryY=0.125;entryDx=0;entryDy=0;entryPerimeter=0;strokeWidth=2;" edge="1" parent="1" source="WR9q7CcePwHXOaSWGCf5-20" target="WR9q7CcePwHXOaSWGCf5-14">
          <mxGeometry relative="1" as="geometry">
            <mxPoint x="470" y="230" as="targetPoint" />
            <Array as="points">
              <mxPoint x="291" y="710" />
              <mxPoint x="220" y="710" />
              <mxPoint x="220" y="170" />
              <mxPoint x="430" y="170" />
              <mxPoint x="430" y="230" />
            </Array>
          </mxGeometry>
        </mxCell>
        <mxCell id="WR9q7CcePwHXOaSWGCf5-17" style="edgeStyle=orthogonalEdgeStyle;rounded=0;orthogonalLoop=1;jettySize=auto;html=1;exitX=0;exitY=0.5;exitDx=0;exitDy=0;strokeWidth=2;" edge="1" parent="1" source="WR9q7CcePwHXOaSWGCf5-20" target="WR9q7CcePwHXOaSWGCf5-14">
          <mxGeometry relative="1" as="geometry">
            <mxPoint x="470" y="260" as="targetPoint" />
            <Array as="points">
              <mxPoint x="291" y="710" />
              <mxPoint x="220" y="710" />
              <mxPoint x="220" y="180" />
              <mxPoint x="420" y="180" />
              <mxPoint x="420" y="261" />
            </Array>
          </mxGeometry>
        </mxCell>
        <mxCell id="WR9q7CcePwHXOaSWGCf5-18" style="edgeStyle=orthogonalEdgeStyle;rounded=0;orthogonalLoop=1;jettySize=auto;html=1;exitX=0;exitY=0.5;exitDx=0;exitDy=0;entryX=0;entryY=0.5;entryDx=0;entryDy=0;strokeWidth=2;" edge="1" parent="1" source="WR9q7CcePwHXOaSWGCf5-20" target="WR9q7CcePwHXOaSWGCf5-14">
          <mxGeometry relative="1" as="geometry">
            <Array as="points">
              <mxPoint x="291" y="710" />
              <mxPoint x="220" y="710" />
              <mxPoint x="220" y="190" />
              <mxPoint x="410" y="190" />
              <mxPoint x="410" y="290" />
            </Array>
          </mxGeometry>
        </mxCell>
        <mxCell id="WR9q7CcePwHXOaSWGCf5-19" style="edgeStyle=orthogonalEdgeStyle;rounded=0;orthogonalLoop=1;jettySize=auto;html=1;exitX=0;exitY=0.5;exitDx=0;exitDy=0;entryX=0.25;entryY=1;entryDx=0;entryDy=0;fontSize=10;strokeWidth=2;" edge="1" parent="1" source="WR9q7CcePwHXOaSWGCf5-20" target="WR9q7CcePwHXOaSWGCf5-33">
          <mxGeometry relative="1" as="geometry">
            <Array as="points">
              <mxPoint x="291" y="710" />
              <mxPoint x="220" y="710" />
              <mxPoint x="220" y="160" />
              <mxPoint x="750" y="160" />
              <mxPoint x="750" y="230" />
            </Array>
          </mxGeometry>
        </mxCell>
        <mxCell id="WR9q7CcePwHXOaSWGCf5-20" value="Instruction Memory" style="rounded=0;whiteSpace=wrap;html=1;" vertex="1" parent="1">
          <mxGeometry x="291" y="650" width="80" height="130" as="geometry" />
        </mxCell>
        <mxCell id="WR9q7CcePwHXOaSWGCf5-21" style="edgeStyle=orthogonalEdgeStyle;rounded=0;orthogonalLoop=1;jettySize=auto;html=1;exitX=1;exitY=0.5;exitDx=0;exitDy=0;entryX=1;entryY=0.5;entryDx=0;entryDy=0;strokeWidth=2;" edge="1" parent="1" source="WR9q7CcePwHXOaSWGCf5-22" target="WR9q7CcePwHXOaSWGCf5-20">
          <mxGeometry relative="1" as="geometry">
            <Array as="points">
              <mxPoint x="430" y="510" />
              <mxPoint x="430" y="715" />
            </Array>
          </mxGeometry>
        </mxCell>
        <mxCell id="WR9q7CcePwHXOaSWGCf5-22" value="PC" style="rounded=0;whiteSpace=wrap;html=1;" vertex="1" parent="1">
          <mxGeometry x="328" y="490" width="80" height="40" as="geometry" />
        </mxCell>
        <mxCell id="WR9q7CcePwHXOaSWGCf5-23" style="edgeStyle=orthogonalEdgeStyle;rounded=0;orthogonalLoop=1;jettySize=auto;html=1;exitX=1;exitY=0.5;exitDx=0;exitDy=0;entryX=0.75;entryY=1;entryDx=0;entryDy=0;strokeWidth=2;" edge="1" parent="1" source="WR9q7CcePwHXOaSWGCf5-24" target="WR9q7CcePwHXOaSWGCf5-26">
          <mxGeometry relative="1" as="geometry" />
        </mxCell>
        <mxCell id="WR9q7CcePwHXOaSWGCf5-24" value="2&#39;s Comp" style="rounded=0;whiteSpace=wrap;html=1;" vertex="1" parent="1">
          <mxGeometry x="640" y="275" width="50" height="30" as="geometry" />
        </mxCell>
        <mxCell id="WR9q7CcePwHXOaSWGCf5-25" style="edgeStyle=orthogonalEdgeStyle;rounded=0;orthogonalLoop=1;jettySize=auto;html=1;exitX=0.5;exitY=0;exitDx=0;exitDy=0;entryX=0.75;entryY=1;entryDx=0;entryDy=0;fontSize=10;strokeWidth=2;" edge="1" parent="1" source="WR9q7CcePwHXOaSWGCf5-26" target="WR9q7CcePwHXOaSWGCf5-33">
          <mxGeometry relative="1" as="geometry" />
        </mxCell>
        <mxCell id="WR9q7CcePwHXOaSWGCf5-26" value="M&lt;br&gt;U&lt;br&gt;X" style="shape=trapezoid;perimeter=trapezoidPerimeter;whiteSpace=wrap;html=1;rotation=90;horizontal=0;" vertex="1" parent="1">
          <mxGeometry x="680" y="256.25" width="80" height="27.5" as="geometry" />
        </mxCell>
        <mxCell id="WR9q7CcePwHXOaSWGCf5-27" value="READREG2 [2:0]" style="text;html=1;align=left;verticalAlign=middle;resizable=0;points=[];autosize=1;fontSize=10;" vertex="1" parent="1">
          <mxGeometry x="437" y="210" width="90" height="20" as="geometry" />
        </mxCell>
        <mxCell id="WR9q7CcePwHXOaSWGCf5-28" value="READREG1 [2:0]" style="text;html=1;align=left;verticalAlign=middle;resizable=0;points=[];autosize=1;fontSize=10;" vertex="1" parent="1">
          <mxGeometry x="437" y="240.25" width="90" height="20" as="geometry" />
        </mxCell>
        <mxCell id="WR9q7CcePwHXOaSWGCf5-29" value="WRITEREG [2:0]" style="text;html=1;align=left;verticalAlign=middle;resizable=0;points=[];autosize=1;fontSize=10;" vertex="1" parent="1">
          <mxGeometry x="437" y="270" width="90" height="20" as="geometry" />
        </mxCell>
        <mxCell id="WR9q7CcePwHXOaSWGCf5-30" value="WRITEENABLE" style="text;html=1;align=left;verticalAlign=middle;resizable=0;points=[];autosize=1;fontSize=10;" vertex="1" parent="1">
          <mxGeometry x="437" y="300" width="90" height="20" as="geometry" />
        </mxCell>
        <mxCell id="WR9q7CcePwHXOaSWGCf5-31" value="REGOUT2 [7:0]" style="text;html=1;strokeColor=none;fillColor=none;align=center;verticalAlign=middle;whiteSpace=wrap;rounded=0;fontSize=10;" vertex="1" parent="1">
          <mxGeometry x="610" y="230" width="80" height="20" as="geometry" />
        </mxCell>
        <mxCell id="WR9q7CcePwHXOaSWGCf5-32" style="edgeStyle=orthogonalEdgeStyle;rounded=0;orthogonalLoop=1;jettySize=auto;html=1;exitX=0.5;exitY=0;exitDx=0;exitDy=0;fontSize=10;strokeWidth=2;" edge="1" parent="1" source="WR9q7CcePwHXOaSWGCf5-33">
          <mxGeometry relative="1" as="geometry">
            <mxPoint x="829" y="250" as="targetPoint" />
          </mxGeometry>
        </mxCell>
        <mxCell id="WR9q7CcePwHXOaSWGCf5-33" value="M&lt;br&gt;U&lt;br&gt;X" style="shape=trapezoid;perimeter=trapezoidPerimeter;whiteSpace=wrap;html=1;rotation=90;horizontal=0;" vertex="1" parent="1">
          <mxGeometry x="740" y="236.5" width="80" height="27.5" as="geometry" />
        </mxCell>
        <mxCell id="WR9q7CcePwHXOaSWGCf5-34" value="IMMEDIATE [7:0]" style="text;html=1;align=center;verticalAlign=middle;resizable=0;points=[];autosize=1;fontSize=10;" vertex="1" parent="1">
          <mxGeometry x="470" y="140" width="90" height="20" as="geometry" />
        </mxCell>
        <mxCell id="WR9q7CcePwHXOaSWGCf5-35" style="edgeStyle=orthogonalEdgeStyle;rounded=0;orthogonalLoop=1;jettySize=auto;html=1;exitX=0.702;exitY=0.507;exitDx=0;exitDy=0;entryX=-0.005;entryY=0.864;entryDx=0;entryDy=0;entryPerimeter=0;fontSize=10;exitPerimeter=0;strokeWidth=2;" edge="1" parent="1" source="WR9q7CcePwHXOaSWGCf5-36" target="WR9q7CcePwHXOaSWGCf5-14">
          <mxGeometry relative="1" as="geometry">
            <Array as="points">
              <mxPoint x="920" y="291" />
              <mxPoint x="920" y="410" />
              <mxPoint x="510" y="410" />
              <mxPoint x="510" y="348" />
            </Array>
          </mxGeometry>
        </mxCell>
        <mxCell id="WR9q7CcePwHXOaSWGCf5-36" value="&amp;nbsp; &amp;nbsp; &amp;nbsp; &amp;nbsp;ALU" style="shape=stencil(vZXdjoMgEIWfhtsGYY3XG3f3PailKykFA/Tv7TuKNmJL2zRiYgwwx+8wZAYRLW3NGo4IrhH9QYRkGMMb5qfJnNmGV84vHpkRbC25j1hn9I6fxMb1DKFqboRro/QX4W/QtM9tQMtKKwU0oZUNJBPhSA4mTChg4rM36bd1CWYN+O6546bfvF9F5O9jl1W+iE+2TDahy5Bb6myS+YT5ZAvVQCqfbDYXWoIg1mMj1ZpVu3+jD2rzkhaRjkRbbfhr2E0tpPQXx/uH1rD2hrnTPVQP3+z1kUcb4NlhPqVKoUbUIsSSPA23mIs7aZvhhp+ZmxczYafcNNv9oh9jK6ltvIwjxQziSD3fSd/tkw4aaUMYdGH/u+8iVw==);whiteSpace=wrap;html=1;strokeColor=#000000;fillColor=#ffffff;fontSize=10;align=left;" vertex="1" parent="1">
          <mxGeometry x="830" y="205" width="80" height="170" as="geometry" />
        </mxCell>
        <mxCell id="WR9q7CcePwHXOaSWGCf5-37" value="&lt;font style=&quot;font-size: 9px;&quot;&gt;INSTRUCTION&lt;br&gt;[31:0]&lt;/font&gt;" style="text;html=1;align=left;verticalAlign=middle;resizable=0;points=[];autosize=1;fontSize=10;" vertex="1" parent="1">
          <mxGeometry x="223" y="674" width="80" height="40" as="geometry" />
        </mxCell>
        <mxCell id="WR9q7CcePwHXOaSWGCf5-38" value="PC&lt;br&gt;[31:0]" style="text;html=1;align=left;verticalAlign=middle;resizable=0;points=[];autosize=1;fontSize=10;" vertex="1" parent="1">
          <mxGeometry x="390" y="650" width="40" height="30" as="geometry" />
        </mxCell>
        <mxCell id="WR9q7CcePwHXOaSWGCf5-39" style="edgeStyle=orthogonalEdgeStyle;rounded=0;orthogonalLoop=1;jettySize=auto;html=1;entryX=0;entryY=0.25;entryDx=0;entryDy=0;fontSize=10;" edge="1" parent="1" source="WR9q7CcePwHXOaSWGCf5-41" target="WR9q7CcePwHXOaSWGCf5-22">
          <mxGeometry relative="1" as="geometry">
            <Array as="points">
              <mxPoint x="280" y="500" />
              <mxPoint x="280" y="500" />
            </Array>
          </mxGeometry>
        </mxCell>
        <mxCell id="WR9q7CcePwHXOaSWGCf5-40" style="edgeStyle=orthogonalEdgeStyle;rounded=0;orthogonalLoop=1;jettySize=auto;html=1;exitX=1;exitY=0.5;exitDx=0;exitDy=0;entryX=0.25;entryY=1;entryDx=0;entryDy=0;fontSize=10;" edge="1" parent="1" source="WR9q7CcePwHXOaSWGCf5-41" target="WR9q7CcePwHXOaSWGCf5-14">
          <mxGeometry relative="1" as="geometry">
            <Array as="points">
              <mxPoint x="150" y="500" />
              <mxPoint x="200" y="500" />
              <mxPoint x="200" y="390" />
              <mxPoint x="550" y="390" />
            </Array>
          </mxGeometry>
        </mxCell>
        <mxCell id="WR9q7CcePwHXOaSWGCf5-41" value="RESET" style="text;html=1;strokeColor=none;fillColor=none;align=right;verticalAlign=middle;whiteSpace=wrap;rounded=0;fontSize=10;" vertex="1" parent="1">
          <mxGeometry x="110" y="490" width="40" height="20" as="geometry" />
        </mxCell>
        <mxCell id="WR9q7CcePwHXOaSWGCf5-42" style="edgeStyle=orthogonalEdgeStyle;rounded=0;orthogonalLoop=1;jettySize=auto;html=1;exitX=1;exitY=0.5;exitDx=0;exitDy=0;entryX=0;entryY=0.75;entryDx=0;entryDy=0;fontSize=10;" edge="1" parent="1" source="WR9q7CcePwHXOaSWGCf5-44" target="WR9q7CcePwHXOaSWGCf5-22">
          <mxGeometry relative="1" as="geometry">
            <Array as="points">
              <mxPoint x="150" y="520" />
            </Array>
          </mxGeometry>
        </mxCell>
        <mxCell id="WR9q7CcePwHXOaSWGCf5-43" style="edgeStyle=orthogonalEdgeStyle;rounded=0;orthogonalLoop=1;jettySize=auto;html=1;exitX=1;exitY=0.5;exitDx=0;exitDy=0;entryX=0.75;entryY=1;entryDx=0;entryDy=0;fontSize=10;" edge="1" parent="1" source="WR9q7CcePwHXOaSWGCf5-44" target="WR9q7CcePwHXOaSWGCf5-14">
          <mxGeometry relative="1" as="geometry">
            <Array as="points">
              <mxPoint x="150" y="520" />
              <mxPoint x="210" y="520" />
              <mxPoint x="210" y="400" />
              <mxPoint x="590" y="400" />
            </Array>
          </mxGeometry>
        </mxCell>
        <mxCell id="WR9q7CcePwHXOaSWGCf5-44" value="CLK" style="text;html=1;strokeColor=none;fillColor=none;align=right;verticalAlign=middle;whiteSpace=wrap;rounded=0;fontSize=10;" vertex="1" parent="1">
          <mxGeometry x="110" y="510" width="40" height="20" as="geometry" />
        </mxCell>
        <mxCell id="WR9q7CcePwHXOaSWGCf5-45" value="" style="triangle;whiteSpace=wrap;html=1;strokeColor=#000000;fillColor=#ffffff;fontSize=10;align=right;" vertex="1" parent="1">
          <mxGeometry x="328" y="516" width="6" height="8" as="geometry" />
        </mxCell>
        <mxCell id="WR9q7CcePwHXOaSWGCf5-46" value="" style="triangle;whiteSpace=wrap;html=1;strokeColor=#000000;fillColor=#ffffff;fontSize=10;align=right;rotation=-90;" vertex="1" parent="1">
          <mxGeometry x="587" y="363" width="6" height="8" as="geometry" />
        </mxCell>
        <mxCell id="WR9q7CcePwHXOaSWGCf5-47" value="REGOUT1 [7:0]" style="text;html=1;strokeColor=none;fillColor=none;align=center;verticalAlign=middle;whiteSpace=wrap;rounded=0;fontSize=10;" vertex="1" parent="1">
          <mxGeometry x="610" y="310" width="80" height="20" as="geometry" />
        </mxCell>
        <mxCell id="WR9q7CcePwHXOaSWGCf5-48" value="ALUOP [2:0]" style="text;html=1;align=center;verticalAlign=middle;resizable=0;points=[];autosize=1;fontSize=10;" vertex="1" parent="1">
          <mxGeometry x="800" y="375" width="70" height="20" as="geometry" />
        </mxCell>
        <mxCell id="WR9q7CcePwHXOaSWGCf5-49" value="ALURESULT [7:0]" style="text;html=1;align=center;verticalAlign=middle;resizable=0;points=[];autosize=1;fontSize=10;rotation=90;" vertex="1" parent="1">
          <mxGeometry x="890" y="343" width="100" height="20" as="geometry" />
        </mxCell>
        <mxCell id="WR9q7CcePwHXOaSWGCf5-50" value="CPU" style="text;html=1;align=center;verticalAlign=middle;resizable=0;points=[];autosize=1;fontSize=12;" vertex="1" parent="1">
          <mxGeometry x="920" y="130" width="40" height="20" as="geometry" />
        </mxCell>
        <mxCell id="WR9q7CcePwHXOaSWGCf5-51" style="edgeStyle=orthogonalEdgeStyle;rounded=0;orthogonalLoop=1;jettySize=auto;html=1;entryX=0;entryY=0.25;entryDx=0;entryDy=0;exitX=1;exitY=0.5;exitDx=0;exitDy=0;exitPerimeter=0;" edge="1" parent="1" source="WR9q7CcePwHXOaSWGCf5-52" target="WR9q7CcePwHXOaSWGCf5-66">
          <mxGeometry relative="1" as="geometry">
            <Array as="points">
              <mxPoint x="1010" y="470" />
              <mxPoint x="1010" y="500" />
              <mxPoint x="840" y="500" />
              <mxPoint x="840" y="516" />
            </Array>
          </mxGeometry>
        </mxCell>
        <mxCell id="WR9q7CcePwHXOaSWGCf5-52" value="" style="shape=or;whiteSpace=wrap;html=1;" vertex="1" parent="1">
          <mxGeometry x="970" y="450" width="30" height="40" as="geometry" />
        </mxCell>
        <mxCell id="WR9q7CcePwHXOaSWGCf5-53" style="edgeStyle=orthogonalEdgeStyle;rounded=0;orthogonalLoop=1;jettySize=auto;html=1;exitX=0.75;exitY=1;exitDx=0;exitDy=0;entryX=0;entryY=0.75;entryDx=0;entryDy=0;entryPerimeter=0;" edge="1" parent="1" source="WR9q7CcePwHXOaSWGCf5-10" target="WR9q7CcePwHXOaSWGCf5-52">
          <mxGeometry relative="1" as="geometry">
            <mxPoint x="910" y="470" as="targetPoint" />
            <Array as="points">
              <mxPoint x="370" y="480" />
              <mxPoint x="910" y="480" />
            </Array>
          </mxGeometry>
        </mxCell>
        <mxCell id="WR9q7CcePwHXOaSWGCf5-54" style="edgeStyle=orthogonalEdgeStyle;rounded=0;orthogonalLoop=1;jettySize=auto;html=1;entryX=0;entryY=0.25;entryDx=0;entryDy=0;entryPerimeter=0;" edge="1" parent="1" target="WR9q7CcePwHXOaSWGCf5-52">
          <mxGeometry relative="1" as="geometry">
            <mxPoint x="890" y="270" as="sourcePoint" />
            <Array as="points">
              <mxPoint x="890" y="270" />
              <mxPoint x="950" y="270" />
              <mxPoint x="950" y="460" />
            </Array>
          </mxGeometry>
        </mxCell>
        <mxCell id="WR9q7CcePwHXOaSWGCf5-55" style="edgeStyle=orthogonalEdgeStyle;rounded=0;orthogonalLoop=1;jettySize=auto;html=1;exitX=0.694;exitY=0.507;exitDx=0;exitDy=0;exitPerimeter=0;entryX=0.011;entryY=0.247;entryDx=0;entryDy=0;entryPerimeter=0;" edge="1" parent="1" source="WR9q7CcePwHXOaSWGCf5-57" target="WR9q7CcePwHXOaSWGCf5-64">
          <mxGeometry relative="1" as="geometry">
            <mxPoint x="686.25" y="558.75" as="targetPoint" />
          </mxGeometry>
        </mxCell>
        <mxCell id="WR9q7CcePwHXOaSWGCf5-56" style="edgeStyle=orthogonalEdgeStyle;rounded=0;orthogonalLoop=1;jettySize=auto;html=1;entryX=0.25;entryY=1;entryDx=0;entryDy=0;exitX=0.71;exitY=0.499;exitDx=0;exitDy=0;exitPerimeter=0;" edge="1" parent="1" source="WR9q7CcePwHXOaSWGCf5-57" target="WR9q7CcePwHXOaSWGCf5-66">
          <mxGeometry relative="1" as="geometry" />
        </mxCell>
        <mxCell id="WR9q7CcePwHXOaSWGCf5-57" value="PC&lt;div&gt;&amp;nbsp;Adder&lt;/div&gt;" style="shape=stencil(vZXdjoMgEIWfhtsGYY3XG3f3PailKykFA/Tv7TuKNmJL2zRiYgwwx+8wZAYRLW3NGo4IrhH9QYRkGMMb5qfJnNmGV84vHpkRbC25j1hn9I6fxMb1DKFqboRro/QX4W/QtM9tQMtKKwU0oZUNJBPhSA4mTChg4rM36bd1CWYN+O6546bfvF9F5O9jl1W+iE+2TDahy5Bb6myS+YT5ZAvVQCqfbDYXWoIg1mMj1ZpVu3+jD2rzkhaRjkRbbfhr2E0tpPQXx/uH1rD2hrnTPVQP3+z1kUcb4NlhPqVKoUbUIsSSPA23mIs7aZvhhp+ZmxczYafcNNv9oh9jK6ltvIwjxQziSD3fSd/tkw4aaUMYdGH/u+8iVw==);whiteSpace=wrap;html=1;strokeColor=#000000;fillColor=#ffffff;fontSize=10;align=center;" vertex="1" parent="1">
          <mxGeometry x="535" y="490" width="80" height="70" as="geometry" />
        </mxCell>
        <mxCell id="WR9q7CcePwHXOaSWGCf5-58" style="edgeStyle=orthogonalEdgeStyle;rounded=0;orthogonalLoop=1;jettySize=auto;html=1;entryX=-0.008;entryY=0.289;entryDx=0;entryDy=0;entryPerimeter=0;" edge="1" parent="1" source="WR9q7CcePwHXOaSWGCf5-22" target="WR9q7CcePwHXOaSWGCf5-57">
          <mxGeometry relative="1" as="geometry">
            <Array as="points" />
          </mxGeometry>
        </mxCell>
        <mxCell id="WR9q7CcePwHXOaSWGCf5-59" value="" style="endArrow=classic;html=1;rounded=0;entryX=-0.002;entryY=0.787;entryDx=0;entryDy=0;entryPerimeter=0;exitX=0.307;exitY=0.83;exitDx=0;exitDy=0;exitPerimeter=0;" edge="1" parent="1" source="WR9q7CcePwHXOaSWGCf5-3" target="WR9q7CcePwHXOaSWGCf5-57">
          <mxGeometry width="50" height="50" relative="1" as="geometry">
            <mxPoint x="457" y="600" as="sourcePoint" />
            <mxPoint x="507" y="550" as="targetPoint" />
          </mxGeometry>
        </mxCell>
        <mxCell id="WR9q7CcePwHXOaSWGCf5-60" value="4" style="text;html=1;align=center;verticalAlign=middle;whiteSpace=wrap;rounded=0;" vertex="1" parent="1">
          <mxGeometry x="420" y="530" width="60" height="30" as="geometry" />
        </mxCell>
        <mxCell id="WR9q7CcePwHXOaSWGCf5-61" style="edgeStyle=orthogonalEdgeStyle;rounded=0;orthogonalLoop=1;jettySize=auto;html=1;entryX=0.011;entryY=0.766;entryDx=0;entryDy=0;exitX=0.838;exitY=0.9;exitDx=0;exitDy=0;exitPerimeter=0;entryPerimeter=0;" edge="1" parent="1" source="WR9q7CcePwHXOaSWGCf5-37" target="WR9q7CcePwHXOaSWGCf5-64">
          <mxGeometry relative="1" as="geometry">
            <mxPoint x="686.25" y="588.75" as="targetPoint" />
            <Array as="points">
              <mxPoint x="220" y="710" />
              <mxPoint x="220" y="594" />
              <mxPoint x="691" y="594" />
            </Array>
          </mxGeometry>
        </mxCell>
        <mxCell id="WR9q7CcePwHXOaSWGCf5-62" value="Offset [23:16]" style="text;html=1;align=center;verticalAlign=middle;whiteSpace=wrap;rounded=0;" vertex="1" parent="1">
          <mxGeometry x="244" y="563.75" width="90" height="30" as="geometry" />
        </mxCell>
        <mxCell id="WR9q7CcePwHXOaSWGCf5-63" style="edgeStyle=orthogonalEdgeStyle;rounded=0;orthogonalLoop=1;jettySize=auto;html=1;entryX=0.75;entryY=1;entryDx=0;entryDy=0;exitX=0.741;exitY=0.517;exitDx=0;exitDy=0;exitPerimeter=0;" edge="1" parent="1" source="WR9q7CcePwHXOaSWGCf5-64" target="WR9q7CcePwHXOaSWGCf5-66">
          <mxGeometry relative="1" as="geometry" />
        </mxCell>
        <mxCell id="WR9q7CcePwHXOaSWGCf5-64" value="Add" style="shape=stencil(vZXdjoMgEIWfhtsGYY3XG3f3PailKykFA/Tv7TuKNmJL2zRiYgwwx+8wZAYRLW3NGo4IrhH9QYRkGMMb5qfJnNmGV84vHpkRbC25j1hn9I6fxMb1DKFqboRro/QX4W/QtM9tQMtKKwU0oZUNJBPhSA4mTChg4rM36bd1CWYN+O6546bfvF9F5O9jl1W+iE+2TDahy5Bb6myS+YT5ZAvVQCqfbDYXWoIg1mMj1ZpVu3+jD2rzkhaRjkRbbfhr2E0tpPQXx/uH1rD2hrnTPVQP3+z1kUcb4NlhPqVKoUbUIsSSPA23mIs7aZvhhp+ZmxczYafcNNv9oh9jK6ltvIwjxQziSD3fSd/tkw4aaUMYdGH/u+8iVw==);whiteSpace=wrap;html=1;strokeColor=#000000;fillColor=#ffffff;fontSize=10;align=center;" vertex="1" parent="1">
          <mxGeometry x="690" y="540" width="80" height="70" as="geometry" />
        </mxCell>
        <mxCell id="WR9q7CcePwHXOaSWGCf5-65" style="edgeStyle=orthogonalEdgeStyle;rounded=0;orthogonalLoop=1;jettySize=auto;html=1;entryX=1;entryY=0.5;entryDx=0;entryDy=0;exitX=0.5;exitY=0;exitDx=0;exitDy=0;" edge="1" parent="1" source="WR9q7CcePwHXOaSWGCf5-66" target="WR9q7CcePwHXOaSWGCf5-20">
          <mxGeometry relative="1" as="geometry" />
        </mxCell>
        <mxCell id="WR9q7CcePwHXOaSWGCf5-66" value="M&lt;br&gt;U&lt;br&gt;X" style="shape=trapezoid;perimeter=trapezoidPerimeter;whiteSpace=wrap;html=1;rotation=90;horizontal=0;" vertex="1" parent="1">
          <mxGeometry x="800" y="531.25" width="80" height="27.5" as="geometry" />
        </mxCell>
        <mxCell id="WR9q7CcePwHXOaSWGCf5-67" value="&lt;font style=&quot;font-size: 9px;&quot;&gt;Jump&lt;/font&gt;" style="text;html=1;align=center;verticalAlign=middle;whiteSpace=wrap;rounded=0;" vertex="1" parent="1">
          <mxGeometry x="371" y="437" width="60" height="30" as="geometry" />
        </mxCell>
        <mxCell id="WR9q7CcePwHXOaSWGCf5-68" value="&lt;font style=&quot;font-size: 9px;&quot;&gt;Branch&lt;/font&gt;" style="text;html=1;align=center;verticalAlign=middle;whiteSpace=wrap;rounded=0;" vertex="1" parent="1">
          <mxGeometry x="371" y="458" width="60" height="30" as="geometry" />
        </mxCell>
        <mxCell id="WR9q7CcePwHXOaSWGCf5-69" value="PC Result&lt;br&gt;[31:0]" style="text;html=1;align=left;verticalAlign=middle;resizable=0;points=[];autosize=1;fontSize=10;" vertex="1" parent="1">
          <mxGeometry x="880" y="553.75" width="70" height="40" as="geometry" />
        </mxCell>
        <mxCell id="WR9q7CcePwHXOaSWGCf5-70" value="Zero" style="text;html=1;align=center;verticalAlign=middle;whiteSpace=wrap;rounded=0;" vertex="1" parent="1">
          <mxGeometry x="840" y="253.75" width="60" height="30" as="geometry" />
        </mxCell>
        <mxCell id="WR9q7CcePwHXOaSWGCf5-91" style="edgeStyle=orthogonalEdgeStyle;rounded=0;orthogonalLoop=1;jettySize=auto;html=1;exitX=0.5;exitY=0;exitDx=0;exitDy=0;entryX=0.5;entryY=0;entryDx=0;entryDy=0;" edge="1" parent="1" source="WR9q7CcePwHXOaSWGCf5-72" target="WR9q7CcePwHXOaSWGCf5-79">
          <mxGeometry relative="1" as="geometry" />
        </mxCell>
        <mxCell id="WR9q7CcePwHXOaSWGCf5-72" value="M&lt;br&gt;U&lt;br&gt;X" style="shape=trapezoid;perimeter=trapezoidPerimeter;whiteSpace=wrap;html=1;rotation=90;horizontal=0;" vertex="1" parent="1">
          <mxGeometry x="1436" y="210" width="80" height="27.5" as="geometry" />
        </mxCell>
        <mxCell id="WR9q7CcePwHXOaSWGCf5-122" style="edgeStyle=orthogonalEdgeStyle;rounded=0;orthogonalLoop=1;jettySize=auto;html=1;entryX=0;entryY=0.5;entryDx=0;entryDy=0;" edge="1" parent="1" source="WR9q7CcePwHXOaSWGCf5-74" target="WR9q7CcePwHXOaSWGCf5-100">
          <mxGeometry relative="1" as="geometry" />
        </mxCell>
        <mxCell id="WR9q7CcePwHXOaSWGCf5-74" value="Instruction Memory" style="rounded=0;whiteSpace=wrap;html=1;" vertex="1" parent="1">
          <mxGeometry x="1550" y="523.75" width="80" height="130" as="geometry" />
        </mxCell>
        <mxCell id="WR9q7CcePwHXOaSWGCf5-216" style="edgeStyle=orthogonalEdgeStyle;rounded=0;orthogonalLoop=1;jettySize=auto;html=1;entryX=0.25;entryY=1;entryDx=0;entryDy=0;exitX=0.718;exitY=0.623;exitDx=0;exitDy=0;exitPerimeter=0;" edge="1" parent="1" source="WR9q7CcePwHXOaSWGCf5-75" target="WR9q7CcePwHXOaSWGCf5-72">
          <mxGeometry relative="1" as="geometry">
            <Array as="points">
              <mxPoint x="1685" y="288" />
              <mxPoint x="1696" y="288" />
              <mxPoint x="1696" y="179" />
              <mxPoint x="1442" y="179" />
              <mxPoint x="1442" y="204" />
            </Array>
          </mxGeometry>
        </mxCell>
        <mxCell id="WR9q7CcePwHXOaSWGCf5-75" value="PC&lt;div&gt;&amp;nbsp;Adder&lt;/div&gt;" style="shape=stencil(vZXdjoMgEIWfhtsGYY3XG3f3PailKykFA/Tv7TuKNmJL2zRiYgwwx+8wZAYRLW3NGo4IrhH9QYRkGMMb5qfJnNmGV84vHpkRbC25j1hn9I6fxMb1DKFqboRro/QX4W/QtM9tQMtKKwU0oZUNJBPhSA4mTChg4rM36bd1CWYN+O6546bfvF9F5O9jl1W+iE+2TDahy5Bb6myS+YT5ZAvVQCqfbDYXWoIg1mMj1ZpVu3+jD2rzkhaRjkRbbfhr2E0tpPQXx/uH1rD2hrnTPVQP3+z1kUcb4NlhPqVKoUbUIsSSPA23mIs7aZvhhp+ZmxczYafcNNv9oh9jK6ltvIwjxQziSD3fSd/tkw4aaUMYdGH/u+8iVw==);whiteSpace=wrap;html=1;strokeColor=#000000;fillColor=#ffffff;fontSize=10;align=center;" vertex="1" parent="1">
          <mxGeometry x="1630" y="253.5" width="76" height="70" as="geometry" />
        </mxCell>
        <mxCell id="WR9q7CcePwHXOaSWGCf5-96" style="edgeStyle=orthogonalEdgeStyle;rounded=0;orthogonalLoop=1;jettySize=auto;html=1;exitX=1;exitY=0.5;exitDx=0;exitDy=0;entryX=0.5;entryY=0;entryDx=0;entryDy=0;" edge="1" parent="1" source="WR9q7CcePwHXOaSWGCf5-79" target="WR9q7CcePwHXOaSWGCf5-74">
          <mxGeometry relative="1" as="geometry" />
        </mxCell>
        <mxCell id="WR9q7CcePwHXOaSWGCf5-79" value="PC" style="rounded=0;whiteSpace=wrap;html=1;" vertex="1" parent="1">
          <mxGeometry x="1506" y="287.5" width="50" height="40" as="geometry" />
        </mxCell>
        <mxCell id="WR9q7CcePwHXOaSWGCf5-80" style="edgeStyle=orthogonalEdgeStyle;rounded=0;orthogonalLoop=1;jettySize=auto;html=1;entryX=0;entryY=0.25;entryDx=0;entryDy=0;fontSize=10;" edge="1" parent="1" target="WR9q7CcePwHXOaSWGCf5-79">
          <mxGeometry relative="1" as="geometry">
            <Array as="points">
              <mxPoint x="1458" y="297.5" />
              <mxPoint x="1458" y="297.5" />
            </Array>
            <mxPoint x="1456" y="297.5" as="sourcePoint" />
          </mxGeometry>
        </mxCell>
        <mxCell id="WR9q7CcePwHXOaSWGCf5-81" value="RESET" style="text;html=1;strokeColor=none;fillColor=none;align=right;verticalAlign=middle;whiteSpace=wrap;rounded=0;fontSize=10;" vertex="1" parent="1">
          <mxGeometry x="1416" y="287.5" width="40" height="20" as="geometry" />
        </mxCell>
        <mxCell id="WR9q7CcePwHXOaSWGCf5-83" value="CLK" style="text;html=1;strokeColor=none;fillColor=none;align=right;verticalAlign=middle;whiteSpace=wrap;rounded=0;fontSize=10;" vertex="1" parent="1">
          <mxGeometry x="1416" y="307.5" width="40" height="20" as="geometry" />
        </mxCell>
        <mxCell id="WR9q7CcePwHXOaSWGCf5-86" value="" style="triangle;whiteSpace=wrap;html=1;strokeColor=#000000;fillColor=#ffffff;fontSize=10;align=right;" vertex="1" parent="1">
          <mxGeometry x="1506" y="313.5" width="6" height="8" as="geometry" />
        </mxCell>
        <mxCell id="WR9q7CcePwHXOaSWGCf5-89" style="edgeStyle=orthogonalEdgeStyle;rounded=0;orthogonalLoop=1;jettySize=auto;html=1;entryX=0;entryY=0.25;entryDx=0;entryDy=0;fontSize=10;" edge="1" parent="1">
          <mxGeometry relative="1" as="geometry">
            <Array as="points">
              <mxPoint x="1458" y="317.22" />
              <mxPoint x="1458" y="317.22" />
            </Array>
            <mxPoint x="1456" y="317.22" as="sourcePoint" />
            <mxPoint x="1506" y="317.22" as="targetPoint" />
          </mxGeometry>
        </mxCell>
        <mxCell id="WR9q7CcePwHXOaSWGCf5-94" value="4" style="text;html=1;align=center;verticalAlign=middle;whiteSpace=wrap;rounded=0;" vertex="1" parent="1">
          <mxGeometry x="1586" y="253.5" width="20" height="30" as="geometry" />
        </mxCell>
        <mxCell id="WR9q7CcePwHXOaSWGCf5-95" style="edgeStyle=orthogonalEdgeStyle;rounded=0;orthogonalLoop=1;jettySize=auto;html=1;entryX=0.038;entryY=0.771;entryDx=0;entryDy=0;entryPerimeter=0;" edge="1" parent="1" source="WR9q7CcePwHXOaSWGCf5-79" target="WR9q7CcePwHXOaSWGCf5-75">
          <mxGeometry relative="1" as="geometry" />
        </mxCell>
        <mxCell id="WR9q7CcePwHXOaSWGCf5-97" style="edgeStyle=orthogonalEdgeStyle;rounded=0;orthogonalLoop=1;jettySize=auto;html=1;entryX=0.001;entryY=0.199;entryDx=0;entryDy=0;entryPerimeter=0;" edge="1" parent="1" source="WR9q7CcePwHXOaSWGCf5-94" target="WR9q7CcePwHXOaSWGCf5-75">
          <mxGeometry relative="1" as="geometry" />
        </mxCell>
        <mxCell id="WR9q7CcePwHXOaSWGCf5-98" value="s" style="rounded=0;whiteSpace=wrap;html=1;strokeColor=#000000;strokeWidth=1;fillColor=none;fontSize=12;align=center;" vertex="1" parent="1">
          <mxGeometry x="770" y="1290" width="400" height="330" as="geometry" />
        </mxCell>
        <mxCell id="WR9q7CcePwHXOaSWGCf5-125" style="edgeStyle=orthogonalEdgeStyle;rounded=0;orthogonalLoop=1;jettySize=auto;html=1;entryX=0;entryY=0.5;entryDx=0;entryDy=0;" edge="1" parent="1" source="WR9q7CcePwHXOaSWGCf5-229" target="WR9q7CcePwHXOaSWGCf5-108">
          <mxGeometry relative="1" as="geometry">
            <Array as="points">
              <mxPoint x="1806" y="417" />
            </Array>
          </mxGeometry>
        </mxCell>
        <mxCell id="WR9q7CcePwHXOaSWGCf5-100" value="" style="rounded=0;whiteSpace=wrap;html=1;" vertex="1" parent="1">
          <mxGeometry x="1750" y="186.25" width="30" height="805" as="geometry" />
        </mxCell>
        <mxCell id="WR9q7CcePwHXOaSWGCf5-106" style="edgeStyle=orthogonalEdgeStyle;rounded=0;orthogonalLoop=1;jettySize=auto;html=1;entryX=0.041;entryY=0.207;entryDx=0;entryDy=0;fontSize=10;entryPerimeter=0;" edge="1" parent="1">
          <mxGeometry relative="1" as="geometry">
            <Array as="points" />
            <mxPoint x="1682.77" y="287.5" as="sourcePoint" />
            <mxPoint x="1749.9999999999998" y="288.365" as="targetPoint" />
          </mxGeometry>
        </mxCell>
        <mxCell id="WR9q7CcePwHXOaSWGCf5-108" value="Control&amp;nbsp;&lt;div&gt;Unit&lt;/div&gt;" style="rounded=0;whiteSpace=wrap;html=1;align=left;" vertex="1" parent="1">
          <mxGeometry x="1886" y="337" width="130" height="160" as="geometry" />
        </mxCell>
        <mxCell id="WR9q7CcePwHXOaSWGCf5-109" value="WRITE_EN&lt;div&gt;MUX1&lt;/div&gt;&lt;div&gt;MEM_READ&lt;/div&gt;&lt;div&gt;MEM_WRITE&lt;/div&gt;&lt;div&gt;JAL_SEL&lt;/div&gt;&lt;div&gt;ALUOP&lt;/div&gt;&lt;div&gt;MUX2&lt;/div&gt;&lt;div&gt;MUX3&lt;/div&gt;&lt;div&gt;BRANCH&lt;/div&gt;&lt;div&gt;JUMP&lt;/div&gt;" style="text;html=1;align=right;verticalAlign=middle;whiteSpace=wrap;rounded=0;" vertex="1" parent="1">
          <mxGeometry x="1916" y="346" width="100" height="144" as="geometry" />
        </mxCell>
        <mxCell id="WR9q7CcePwHXOaSWGCf5-111" value="&lt;div&gt;&lt;b&gt;&lt;br&gt;&lt;/b&gt;&lt;/div&gt;&lt;b&gt;Reg File&lt;/b&gt;" style="rounded=0;whiteSpace=wrap;html=1;align=center;" vertex="1" parent="1">
          <mxGeometry x="1896" y="700" width="130" height="160" as="geometry" />
        </mxCell>
        <mxCell id="WR9q7CcePwHXOaSWGCf5-112" value="" style="triangle;whiteSpace=wrap;html=1;strokeColor=#000000;fillColor=#ffffff;fontSize=10;align=right;rotation=-90;" vertex="1" parent="1">
          <mxGeometry x="1997" y="852" width="6" height="8" as="geometry" />
        </mxCell>
        <mxCell id="WR9q7CcePwHXOaSWGCf5-113" value="" style="rounded=0;whiteSpace=wrap;html=1;" vertex="1" parent="1">
          <mxGeometry x="2096" y="190" width="30" height="805" as="geometry" />
        </mxCell>
        <mxCell id="WR9q7CcePwHXOaSWGCf5-116" value="&amp;nbsp; &amp;nbsp; &amp;nbsp; &amp;nbsp;ALU" style="shape=stencil(vZXdjoMgEIWfhtsGYY3XG3f3PailKykFA/Tv7TuKNmJL2zRiYgwwx+8wZAYRLW3NGo4IrhH9QYRkGMMb5qfJnNmGV84vHpkRbC25j1hn9I6fxMb1DKFqboRro/QX4W/QtM9tQMtKKwU0oZUNJBPhSA4mTChg4rM36bd1CWYN+O6546bfvF9F5O9jl1W+iE+2TDahy5Bb6myS+YT5ZAvVQCqfbDYXWoIg1mMj1ZpVu3+jD2rzkhaRjkRbbfhr2E0tpPQXx/uH1rD2hrnTPVQP3+z1kUcb4NlhPqVKoUbUIsSSPA23mIs7aZvhhp+ZmxczYafcNNv9oh9jK6ltvIwjxQziSD3fSd/tkw4aaUMYdGH/u+8iVw==);whiteSpace=wrap;html=1;strokeColor=#000000;fillColor=#ffffff;fontSize=10;align=left;" vertex="1" parent="1">
          <mxGeometry x="2276" y="509" width="100" height="170" as="geometry" />
        </mxCell>
        <mxCell id="WR9q7CcePwHXOaSWGCf5-117" value="Zero" style="text;html=1;align=center;verticalAlign=middle;whiteSpace=wrap;rounded=0;" vertex="1" parent="1">
          <mxGeometry x="2296" y="602.75" width="50" height="30" as="geometry" />
        </mxCell>
        <mxCell id="WR9q7CcePwHXOaSWGCf5-118" value="" style="rounded=0;whiteSpace=wrap;html=1;" vertex="1" parent="1">
          <mxGeometry x="2456" y="190" width="30" height="805" as="geometry" />
        </mxCell>
        <mxCell id="WR9q7CcePwHXOaSWGCf5-119" style="edgeStyle=orthogonalEdgeStyle;rounded=0;orthogonalLoop=1;jettySize=auto;html=1;entryX=0.107;entryY=0.124;entryDx=0;entryDy=0;fontSize=10;entryPerimeter=0;" edge="1" parent="1" target="WR9q7CcePwHXOaSWGCf5-113">
          <mxGeometry relative="1" as="geometry">
            <Array as="points" />
            <mxPoint x="1780" y="288.75" as="sourcePoint" />
            <mxPoint x="1847.2299999999998" y="289.615" as="targetPoint" />
          </mxGeometry>
        </mxCell>
        <mxCell id="WR9q7CcePwHXOaSWGCf5-123" style="edgeStyle=orthogonalEdgeStyle;rounded=0;orthogonalLoop=1;jettySize=auto;html=1;exitX=1;exitY=0.5;exitDx=0;exitDy=0;entryX=0.021;entryY=0.14;entryDx=0;entryDy=0;entryPerimeter=0;" edge="1" parent="1" source="WR9q7CcePwHXOaSWGCf5-100" target="WR9q7CcePwHXOaSWGCf5-108">
          <mxGeometry relative="1" as="geometry">
            <Array as="points">
              <mxPoint x="1806" y="589" />
              <mxPoint x="1806" y="359" />
            </Array>
          </mxGeometry>
        </mxCell>
        <mxCell id="WR9q7CcePwHXOaSWGCf5-126" style="edgeStyle=orthogonalEdgeStyle;rounded=0;orthogonalLoop=1;jettySize=auto;html=1;entryX=-0.016;entryY=0.323;entryDx=0;entryDy=0;entryPerimeter=0;" edge="1" parent="1" source="WR9q7CcePwHXOaSWGCf5-100" target="WR9q7CcePwHXOaSWGCf5-108">
          <mxGeometry relative="1" as="geometry">
            <Array as="points">
              <mxPoint x="1806" y="589" />
              <mxPoint x="1806" y="389" />
            </Array>
          </mxGeometry>
        </mxCell>
        <mxCell id="WR9q7CcePwHXOaSWGCf5-129" style="edgeStyle=orthogonalEdgeStyle;rounded=0;orthogonalLoop=1;jettySize=auto;html=1;entryX=0.016;entryY=0.147;entryDx=0;entryDy=0;entryPerimeter=0;" edge="1" parent="1" target="WR9q7CcePwHXOaSWGCf5-111">
          <mxGeometry relative="1" as="geometry">
            <mxPoint x="1780" y="518.8571428571429" as="sourcePoint" />
            <Array as="points">
              <mxPoint x="1780" y="589" />
              <mxPoint x="1806" y="589" />
              <mxPoint x="1806" y="724" />
            </Array>
          </mxGeometry>
        </mxCell>
        <mxCell id="WR9q7CcePwHXOaSWGCf5-130" value="" style="endArrow=classic;html=1;rounded=0;exitX=0.999;exitY=0.052;exitDx=0;exitDy=0;exitPerimeter=0;entryX=0.009;entryY=0.203;entryDx=0;entryDy=0;entryPerimeter=0;strokeColor=#0000FF;" edge="1" parent="1" source="WR9q7CcePwHXOaSWGCf5-109" target="WR9q7CcePwHXOaSWGCf5-113">
          <mxGeometry width="50" height="50" relative="1" as="geometry">
            <mxPoint x="2026" y="352" as="sourcePoint" />
            <mxPoint x="2086" y="352" as="targetPoint" />
          </mxGeometry>
        </mxCell>
        <mxCell id="WR9q7CcePwHXOaSWGCf5-131" value="" style="endArrow=classic;html=1;rounded=0;exitX=0.989;exitY=0.144;exitDx=0;exitDy=0;exitPerimeter=0;entryX=0.009;entryY=0.22;entryDx=0;entryDy=0;entryPerimeter=0;strokeColor=#0000FF;" edge="1" parent="1" source="WR9q7CcePwHXOaSWGCf5-109" target="WR9q7CcePwHXOaSWGCf5-113">
          <mxGeometry width="50" height="50" relative="1" as="geometry">
            <mxPoint x="2016" y="371.2" as="sourcePoint" />
            <mxPoint x="2096" y="371.2" as="targetPoint" />
          </mxGeometry>
        </mxCell>
        <mxCell id="WR9q7CcePwHXOaSWGCf5-132" value="" style="endArrow=classic;html=1;rounded=0;exitX=1;exitY=0.25;exitDx=0;exitDy=0;entryX=0;entryY=0.239;entryDx=0;entryDy=0;entryPerimeter=0;strokeColor=#0000FF;" edge="1" parent="1" source="WR9q7CcePwHXOaSWGCf5-109" target="WR9q7CcePwHXOaSWGCf5-113">
          <mxGeometry width="50" height="50" relative="1" as="geometry">
            <mxPoint x="2025" y="377" as="sourcePoint" />
            <mxPoint x="2106" y="377" as="targetPoint" />
          </mxGeometry>
        </mxCell>
        <mxCell id="WR9q7CcePwHXOaSWGCf5-133" value="" style="endArrow=classic;html=1;rounded=0;exitX=1.004;exitY=0.34;exitDx=0;exitDy=0;exitPerimeter=0;entryX=0.009;entryY=0.257;entryDx=0;entryDy=0;entryPerimeter=0;strokeColor=#0000FF;" edge="1" parent="1" source="WR9q7CcePwHXOaSWGCf5-109" target="WR9q7CcePwHXOaSWGCf5-113">
          <mxGeometry width="50" height="50" relative="1" as="geometry">
            <mxPoint x="2035" y="387" as="sourcePoint" />
            <mxPoint x="2116" y="387" as="targetPoint" />
          </mxGeometry>
        </mxCell>
        <mxCell id="WR9q7CcePwHXOaSWGCf5-134" value="" style="endArrow=classic;html=1;rounded=0;exitX=0.994;exitY=0.439;exitDx=0;exitDy=0;exitPerimeter=0;strokeColor=#0000FF;" edge="1" parent="1" source="WR9q7CcePwHXOaSWGCf5-109">
          <mxGeometry width="50" height="50" relative="1" as="geometry">
            <mxPoint x="2026" y="404" as="sourcePoint" />
            <mxPoint x="2096" y="409" as="targetPoint" />
          </mxGeometry>
        </mxCell>
        <mxCell id="WR9q7CcePwHXOaSWGCf5-135" value="" style="endArrow=classic;html=1;rounded=0;exitX=1.014;exitY=0.549;exitDx=0;exitDy=0;entryX=-0.059;entryY=0.292;entryDx=0;entryDy=0;entryPerimeter=0;exitPerimeter=0;strokeColor=#0000FF;" edge="1" parent="1" source="WR9q7CcePwHXOaSWGCf5-109" target="WR9q7CcePwHXOaSWGCf5-113">
          <mxGeometry width="50" height="50" relative="1" as="geometry">
            <mxPoint x="2036" y="402" as="sourcePoint" />
            <mxPoint x="2116" y="402" as="targetPoint" />
          </mxGeometry>
        </mxCell>
        <mxCell id="WR9q7CcePwHXOaSWGCf5-136" value="" style="endArrow=classic;html=1;rounded=0;exitX=1.004;exitY=0.645;exitDx=0;exitDy=0;entryX=0;entryY=0.309;entryDx=0;entryDy=0;entryPerimeter=0;exitPerimeter=0;strokeColor=#0000FF;" edge="1" parent="1" source="WR9q7CcePwHXOaSWGCf5-109" target="WR9q7CcePwHXOaSWGCf5-113">
          <mxGeometry width="50" height="50" relative="1" as="geometry">
            <mxPoint x="2046" y="412" as="sourcePoint" />
            <mxPoint x="2126" y="412" as="targetPoint" />
          </mxGeometry>
        </mxCell>
        <mxCell id="WR9q7CcePwHXOaSWGCf5-137" value="" style="endArrow=classic;html=1;rounded=0;exitX=1;exitY=0.75;exitDx=0;exitDy=0;entryX=0.009;entryY=0.327;entryDx=0;entryDy=0;entryPerimeter=0;strokeColor=#0000FF;" edge="1" parent="1" source="WR9q7CcePwHXOaSWGCf5-109" target="WR9q7CcePwHXOaSWGCf5-113">
          <mxGeometry width="50" height="50" relative="1" as="geometry">
            <mxPoint x="2056" y="422" as="sourcePoint" />
            <mxPoint x="2136" y="422" as="targetPoint" />
          </mxGeometry>
        </mxCell>
        <mxCell id="WR9q7CcePwHXOaSWGCf5-138" value="" style="endArrow=classic;html=1;rounded=0;exitX=1.004;exitY=0.845;exitDx=0;exitDy=0;entryX=0.009;entryY=0.344;entryDx=0;entryDy=0;entryPerimeter=0;exitPerimeter=0;strokeColor=#0000FF;" edge="1" parent="1" source="WR9q7CcePwHXOaSWGCf5-109" target="WR9q7CcePwHXOaSWGCf5-113">
          <mxGeometry width="50" height="50" relative="1" as="geometry">
            <mxPoint x="2066" y="432" as="sourcePoint" />
            <mxPoint x="2146" y="432" as="targetPoint" />
          </mxGeometry>
        </mxCell>
        <mxCell id="WR9q7CcePwHXOaSWGCf5-139" value="" style="endArrow=classic;html=1;rounded=0;exitX=1.009;exitY=0.933;exitDx=0;exitDy=0;exitPerimeter=0;strokeColor=#0000FF;" edge="1" parent="1" source="WR9q7CcePwHXOaSWGCf5-109">
          <mxGeometry width="50" height="50" relative="1" as="geometry">
            <mxPoint x="2076" y="442" as="sourcePoint" />
            <mxPoint x="2096" y="480" as="targetPoint" />
          </mxGeometry>
        </mxCell>
        <mxCell id="WR9q7CcePwHXOaSWGCf5-140" value="" style="endArrow=classic;html=1;rounded=0;" edge="1" parent="1">
          <mxGeometry width="50" height="50" relative="1" as="geometry">
            <mxPoint x="2026" y="719" as="sourcePoint" />
            <mxPoint x="2096" y="719" as="targetPoint" />
          </mxGeometry>
        </mxCell>
        <mxCell id="WR9q7CcePwHXOaSWGCf5-141" value="" style="endArrow=classic;html=1;rounded=0;exitX=1.008;exitY=0.365;exitDx=0;exitDy=0;exitPerimeter=0;entryX=-0.023;entryY=0.792;entryDx=0;entryDy=0;entryPerimeter=0;" edge="1" parent="1" source="WR9q7CcePwHXOaSWGCf5-111">
          <mxGeometry width="50" height="50" relative="1" as="geometry">
            <mxPoint x="2006" y="729.86" as="sourcePoint" />
            <mxPoint x="2095.3100000000004" y="757.56" as="targetPoint" />
          </mxGeometry>
        </mxCell>
        <mxCell id="WR9q7CcePwHXOaSWGCf5-142" value="OUT1&lt;div&gt;&lt;br&gt;&lt;/div&gt;&lt;div&gt;&lt;br&gt;&lt;/div&gt;&lt;div&gt;OUT 2&lt;/div&gt;" style="text;html=1;align=center;verticalAlign=middle;whiteSpace=wrap;rounded=0;" vertex="1" parent="1">
          <mxGeometry x="1976" y="708" width="58" height="61" as="geometry" />
        </mxCell>
        <mxCell id="WR9q7CcePwHXOaSWGCf5-143" style="edgeStyle=orthogonalEdgeStyle;rounded=0;orthogonalLoop=1;jettySize=auto;html=1;entryX=0;entryY=0.431;entryDx=0;entryDy=0;entryPerimeter=0;" edge="1" parent="1" target="WR9q7CcePwHXOaSWGCf5-111">
          <mxGeometry relative="1" as="geometry">
            <mxPoint x="1780" y="518.8571428571429" as="sourcePoint" />
            <Array as="points">
              <mxPoint x="1780" y="589" />
              <mxPoint x="1806" y="589" />
              <mxPoint x="1806" y="769" />
            </Array>
          </mxGeometry>
        </mxCell>
        <mxCell id="WR9q7CcePwHXOaSWGCf5-144" value="ADDR1&lt;div&gt;&lt;br&gt;&lt;/div&gt;&lt;div&gt;&lt;br&gt;&lt;/div&gt;&lt;div&gt;ADDR2&lt;/div&gt;" style="text;html=1;align=center;verticalAlign=middle;whiteSpace=wrap;rounded=0;" vertex="1" parent="1">
          <mxGeometry x="1893" y="733" width="60" height="30" as="geometry" />
        </mxCell>
        <mxCell id="WR9q7CcePwHXOaSWGCf5-145" value="WRITE_ADDR&lt;div&gt;WRITE_EN&lt;/div&gt;&lt;div&gt;DATA_IN&lt;/div&gt;" style="text;html=1;align=left;verticalAlign=middle;whiteSpace=wrap;rounded=0;" vertex="1" parent="1">
          <mxGeometry x="1896" y="792" width="80" height="60" as="geometry" />
        </mxCell>
        <mxCell id="WR9q7CcePwHXOaSWGCf5-149" value="" style="endArrow=classic;html=1;rounded=0;exitX=0.985;exitY=0.943;exitDx=0;exitDy=0;exitPerimeter=0;entryX=0.084;entryY=0.939;entryDx=0;entryDy=0;entryPerimeter=0;" edge="1" parent="1" source="WR9q7CcePwHXOaSWGCf5-100" target="WR9q7CcePwHXOaSWGCf5-113">
          <mxGeometry width="50" height="50" relative="1" as="geometry">
            <mxPoint x="1926" y="849" as="sourcePoint" />
            <mxPoint x="1906" y="947" as="targetPoint" />
          </mxGeometry>
        </mxCell>
        <mxCell id="WR9q7CcePwHXOaSWGCf5-151" value="M&lt;br&gt;U&lt;br&gt;X&lt;div&gt;2&lt;/div&gt;" style="shape=trapezoid;perimeter=trapezoidPerimeter;whiteSpace=wrap;html=1;rotation=90;horizontal=0;" vertex="1" parent="1">
          <mxGeometry x="2176" y="535.5" width="80" height="27.5" as="geometry" />
        </mxCell>
        <mxCell id="WR9q7CcePwHXOaSWGCf5-153" value="M&lt;br&gt;U&lt;br&gt;X&lt;div&gt;3&lt;/div&gt;" style="shape=trapezoid;perimeter=trapezoidPerimeter;whiteSpace=wrap;html=1;rotation=90;horizontal=0;" vertex="1" parent="1">
          <mxGeometry x="2198" y="640" width="80" height="27.5" as="geometry" />
        </mxCell>
        <mxCell id="WR9q7CcePwHXOaSWGCf5-155" style="edgeStyle=orthogonalEdgeStyle;rounded=0;orthogonalLoop=1;jettySize=auto;html=1;exitX=0.5;exitY=0;exitDx=0;exitDy=0;entryX=-0.018;entryY=0.244;entryDx=0;entryDy=0;entryPerimeter=0;" edge="1" parent="1" source="WR9q7CcePwHXOaSWGCf5-151" target="WR9q7CcePwHXOaSWGCf5-116">
          <mxGeometry relative="1" as="geometry" />
        </mxCell>
        <mxCell id="WR9q7CcePwHXOaSWGCf5-156" style="edgeStyle=orthogonalEdgeStyle;rounded=0;orthogonalLoop=1;jettySize=auto;html=1;exitX=0.5;exitY=0;exitDx=0;exitDy=0;entryX=-0.018;entryY=0.852;entryDx=0;entryDy=0;entryPerimeter=0;" edge="1" parent="1" source="WR9q7CcePwHXOaSWGCf5-153" target="WR9q7CcePwHXOaSWGCf5-116">
          <mxGeometry relative="1" as="geometry" />
        </mxCell>
        <mxCell id="WR9q7CcePwHXOaSWGCf5-159" value="" style="edgeStyle=elbowEdgeStyle;elbow=horizontal;endArrow=classic;html=1;curved=0;rounded=0;endSize=8;startSize=8;exitX=1.032;exitY=0.658;exitDx=0;exitDy=0;exitPerimeter=0;entryX=0.75;entryY=1;entryDx=0;entryDy=0;" edge="1" parent="1" source="WR9q7CcePwHXOaSWGCf5-113" target="WR9q7CcePwHXOaSWGCf5-151">
          <mxGeometry width="50" height="50" relative="1" as="geometry">
            <mxPoint x="2186" y="749" as="sourcePoint" />
            <mxPoint x="2236" y="699" as="targetPoint" />
            <Array as="points">
              <mxPoint x="2156" y="649" />
            </Array>
          </mxGeometry>
        </mxCell>
        <mxCell id="WR9q7CcePwHXOaSWGCf5-160" value="" style="edgeStyle=elbowEdgeStyle;elbow=horizontal;endArrow=classic;html=1;curved=0;rounded=0;endSize=8;startSize=8;exitX=1.032;exitY=0.708;exitDx=0;exitDy=0;exitPerimeter=0;entryX=0.75;entryY=1;entryDx=0;entryDy=0;" edge="1" parent="1" source="WR9q7CcePwHXOaSWGCf5-113" target="WR9q7CcePwHXOaSWGCf5-153">
          <mxGeometry width="50" height="50" relative="1" as="geometry">
            <mxPoint x="2186" y="749" as="sourcePoint" />
            <mxPoint x="2236" y="699" as="targetPoint" />
            <Array as="points">
              <mxPoint x="2176" y="719" />
            </Array>
          </mxGeometry>
        </mxCell>
        <mxCell id="WR9q7CcePwHXOaSWGCf5-217" style="edgeStyle=orthogonalEdgeStyle;rounded=0;orthogonalLoop=1;jettySize=auto;html=1;exitX=0.25;exitY=1;exitDx=0;exitDy=0;entryX=1;entryY=0.5;entryDx=0;entryDy=0;" edge="1" parent="1" source="WR9q7CcePwHXOaSWGCf5-162" target="WR9q7CcePwHXOaSWGCf5-72">
          <mxGeometry relative="1" as="geometry">
            <Array as="points">
              <mxPoint x="2291" y="1019" />
              <mxPoint x="1406" y="1019" />
              <mxPoint x="1406" y="279" />
              <mxPoint x="1476" y="279" />
            </Array>
          </mxGeometry>
        </mxCell>
        <mxCell id="WR9q7CcePwHXOaSWGCf5-218" style="edgeStyle=orthogonalEdgeStyle;rounded=0;orthogonalLoop=1;jettySize=auto;html=1;exitX=0.5;exitY=1;exitDx=0;exitDy=0;entryX=0.75;entryY=1;entryDx=0;entryDy=0;" edge="1" parent="1" source="WR9q7CcePwHXOaSWGCf5-162" target="WR9q7CcePwHXOaSWGCf5-72">
          <mxGeometry relative="1" as="geometry">
            <Array as="points">
              <mxPoint x="2316" y="1039" />
              <mxPoint x="1386" y="1039" />
              <mxPoint x="1386" y="244" />
            </Array>
          </mxGeometry>
        </mxCell>
        <mxCell id="WR9q7CcePwHXOaSWGCf5-162" value="BRANCH&lt;div&gt;CONTROL&lt;/div&gt;&lt;div&gt;UNIT&lt;/div&gt;" style="rounded=0;whiteSpace=wrap;html=1;" vertex="1" parent="1">
          <mxGeometry x="2266" y="869" width="100" height="60" as="geometry" />
        </mxCell>
        <mxCell id="WR9q7CcePwHXOaSWGCf5-165" style="edgeStyle=orthogonalEdgeStyle;rounded=0;orthogonalLoop=1;jettySize=auto;html=1;" edge="1" parent="1" source="WR9q7CcePwHXOaSWGCf5-117">
          <mxGeometry relative="1" as="geometry">
            <mxPoint x="2356" y="869" as="targetPoint" />
            <Array as="points">
              <mxPoint x="2356" y="618" />
              <mxPoint x="2356" y="869" />
            </Array>
          </mxGeometry>
        </mxCell>
        <mxCell id="WR9q7CcePwHXOaSWGCf5-166" value="&lt;b&gt;&lt;font style=&quot;font-size: 14px;&quot;&gt;DATA MEM&lt;/font&gt;&lt;/b&gt;" style="rounded=0;whiteSpace=wrap;html=1;" vertex="1" parent="1">
          <mxGeometry x="2546" y="471" width="220" height="270" as="geometry" />
        </mxCell>
        <mxCell id="WR9q7CcePwHXOaSWGCf5-168" value="ADDR" style="text;html=1;align=center;verticalAlign=middle;whiteSpace=wrap;rounded=0;" vertex="1" parent="1">
          <mxGeometry x="2546" y="536" width="60" height="30" as="geometry" />
        </mxCell>
        <mxCell id="WR9q7CcePwHXOaSWGCf5-169" value="WRITE_DATA" style="text;html=1;align=center;verticalAlign=middle;whiteSpace=wrap;rounded=0;" vertex="1" parent="1">
          <mxGeometry x="2546" y="650.5" width="86" height="30" as="geometry" />
        </mxCell>
        <mxCell id="WR9q7CcePwHXOaSWGCf5-170" value="MEM_WRITE" style="text;html=1;align=center;verticalAlign=middle;whiteSpace=wrap;rounded=0;" vertex="1" parent="1">
          <mxGeometry x="2556" y="471" width="90" height="30" as="geometry" />
        </mxCell>
        <mxCell id="WR9q7CcePwHXOaSWGCf5-171" style="edgeStyle=orthogonalEdgeStyle;rounded=0;orthogonalLoop=1;jettySize=auto;html=1;exitX=0.5;exitY=1;exitDx=0;exitDy=0;" edge="1" parent="1" source="WR9q7CcePwHXOaSWGCf5-170" target="WR9q7CcePwHXOaSWGCf5-170">
          <mxGeometry relative="1" as="geometry" />
        </mxCell>
        <mxCell id="WR9q7CcePwHXOaSWGCf5-172" value="MEM_READ" style="text;html=1;align=center;verticalAlign=middle;whiteSpace=wrap;rounded=0;" vertex="1" parent="1">
          <mxGeometry x="2646" y="471" width="90" height="30" as="geometry" />
        </mxCell>
        <mxCell id="WR9q7CcePwHXOaSWGCf5-173" value="DATA_OUT&amp;nbsp;" style="text;html=1;align=center;verticalAlign=middle;whiteSpace=wrap;rounded=0;" vertex="1" parent="1">
          <mxGeometry x="2697" y="653" width="70" height="30" as="geometry" />
        </mxCell>
        <mxCell id="WR9q7CcePwHXOaSWGCf5-174" style="edgeStyle=orthogonalEdgeStyle;rounded=0;orthogonalLoop=1;jettySize=auto;html=1;entryX=-0.058;entryY=0.556;entryDx=0;entryDy=0;entryPerimeter=0;exitX=1;exitY=0.5;exitDx=0;exitDy=0;" edge="1" parent="1" source="WR9q7CcePwHXOaSWGCf5-100" target="WR9q7CcePwHXOaSWGCf5-113">
          <mxGeometry relative="1" as="geometry">
            <mxPoint x="1826" y="593" as="sourcePoint" />
            <Array as="points">
              <mxPoint x="1806" y="589" />
              <mxPoint x="1806" y="638" />
            </Array>
          </mxGeometry>
        </mxCell>
        <mxCell id="WR9q7CcePwHXOaSWGCf5-175" value="" style="endArrow=classic;html=1;rounded=0;exitX=0.934;exitY=0.552;exitDx=0;exitDy=0;exitPerimeter=0;entryX=0.25;entryY=1;entryDx=0;entryDy=0;" edge="1" parent="1" source="WR9q7CcePwHXOaSWGCf5-113" target="WR9q7CcePwHXOaSWGCf5-153">
          <mxGeometry width="50" height="50" relative="1" as="geometry">
            <mxPoint x="2216" y="729" as="sourcePoint" />
            <mxPoint x="2266" y="679" as="targetPoint" />
          </mxGeometry>
        </mxCell>
        <mxCell id="WR9q7CcePwHXOaSWGCf5-177" style="edgeStyle=orthogonalEdgeStyle;rounded=0;orthogonalLoop=1;jettySize=auto;html=1;entryX=0.125;entryY=0.402;entryDx=0;entryDy=0;entryPerimeter=0;" edge="1" parent="1" target="WR9q7CcePwHXOaSWGCf5-100">
          <mxGeometry relative="1" as="geometry">
            <mxPoint x="1556" y="309" as="sourcePoint" />
            <mxPoint x="1749.9600000000003" y="537.7800000000001" as="targetPoint" />
            <Array as="points">
              <mxPoint x="1603" y="309" />
              <mxPoint x="1603" y="510" />
            </Array>
          </mxGeometry>
        </mxCell>
        <mxCell id="WR9q7CcePwHXOaSWGCf5-178" value="" style="endArrow=classic;html=1;rounded=0;exitX=0.985;exitY=0.403;exitDx=0;exitDy=0;exitPerimeter=0;" edge="1" parent="1" source="WR9q7CcePwHXOaSWGCf5-100">
          <mxGeometry width="50" height="50" relative="1" as="geometry">
            <mxPoint x="2026" y="579" as="sourcePoint" />
            <mxPoint x="2094" y="511" as="targetPoint" />
          </mxGeometry>
        </mxCell>
        <mxCell id="WR9q7CcePwHXOaSWGCf5-179" value="" style="endArrow=classic;html=1;rounded=0;exitX=1.002;exitY=0.409;exitDx=0;exitDy=0;exitPerimeter=0;entryX=0.139;entryY=1.111;entryDx=0;entryDy=0;entryPerimeter=0;" edge="1" parent="1" source="WR9q7CcePwHXOaSWGCf5-113" target="WR9q7CcePwHXOaSWGCf5-151">
          <mxGeometry width="50" height="50" relative="1" as="geometry">
            <mxPoint x="2196" y="589" as="sourcePoint" />
            <mxPoint x="2196" y="519" as="targetPoint" />
          </mxGeometry>
        </mxCell>
        <mxCell id="WR9q7CcePwHXOaSWGCf5-181" value="JAL" style="shape=trapezoid;perimeter=trapezoidPerimeter;whiteSpace=wrap;html=1;rotation=90;horizontal=0;" vertex="1" parent="1">
          <mxGeometry x="2366" y="540.25" width="80" height="27.5" as="geometry" />
        </mxCell>
        <mxCell id="WR9q7CcePwHXOaSWGCf5-182" value="" style="edgeStyle=elbowEdgeStyle;elbow=horizontal;endArrow=classic;html=1;curved=0;rounded=0;endSize=8;startSize=8;exitX=0.7;exitY=0.379;exitDx=0;exitDy=0;exitPerimeter=0;entryX=0.75;entryY=1;entryDx=0;entryDy=0;" edge="1" parent="1" source="WR9q7CcePwHXOaSWGCf5-116" target="WR9q7CcePwHXOaSWGCf5-181">
          <mxGeometry width="50" height="50" relative="1" as="geometry">
            <mxPoint x="2356" y="569" as="sourcePoint" />
            <mxPoint x="2406" y="519" as="targetPoint" />
          </mxGeometry>
        </mxCell>
        <mxCell id="WR9q7CcePwHXOaSWGCf5-183" value="" style="edgeStyle=elbowEdgeStyle;elbow=horizontal;endArrow=classic;html=1;curved=0;rounded=0;endSize=8;startSize=8;exitX=1.044;exitY=0.122;exitDx=0;exitDy=0;exitPerimeter=0;entryX=0.25;entryY=1;entryDx=0;entryDy=0;" edge="1" parent="1" source="WR9q7CcePwHXOaSWGCf5-113" target="WR9q7CcePwHXOaSWGCf5-181">
          <mxGeometry width="50" height="50" relative="1" as="geometry">
            <mxPoint x="2356" y="649" as="sourcePoint" />
            <mxPoint x="2406" y="599" as="targetPoint" />
            <Array as="points">
              <mxPoint x="2356" y="409" />
            </Array>
          </mxGeometry>
        </mxCell>
        <mxCell id="WR9q7CcePwHXOaSWGCf5-184" value="" style="endArrow=classic;html=1;rounded=0;exitX=0.5;exitY=0;exitDx=0;exitDy=0;entryX=-0.004;entryY=0.452;entryDx=0;entryDy=0;entryPerimeter=0;" edge="1" parent="1" source="WR9q7CcePwHXOaSWGCf5-181" target="WR9q7CcePwHXOaSWGCf5-118">
          <mxGeometry width="50" height="50" relative="1" as="geometry">
            <mxPoint x="2596" y="779" as="sourcePoint" />
            <mxPoint x="2646" y="729" as="targetPoint" />
          </mxGeometry>
        </mxCell>
        <mxCell id="WR9q7CcePwHXOaSWGCf5-185" value="" style="endArrow=classic;html=1;rounded=0;entryX=-0.011;entryY=0.305;entryDx=0;entryDy=0;entryPerimeter=0;" edge="1" parent="1" target="WR9q7CcePwHXOaSWGCf5-166">
          <mxGeometry width="50" height="50" relative="1" as="geometry">
            <mxPoint x="2486" y="553" as="sourcePoint" />
            <mxPoint x="2646" y="729" as="targetPoint" />
          </mxGeometry>
        </mxCell>
        <mxCell id="WR9q7CcePwHXOaSWGCf5-186" value="" style="endArrow=classic;html=1;rounded=0;exitX=1.044;exitY=0.712;exitDx=0;exitDy=0;exitPerimeter=0;entryX=-0.04;entryY=0.716;entryDx=0;entryDy=0;entryPerimeter=0;" edge="1" parent="1">
          <mxGeometry width="50" height="50" relative="1" as="geometry">
            <mxPoint x="2127.32" y="760.1600000000001" as="sourcePoint" />
            <mxPoint x="2454.8" y="763.3800000000001" as="targetPoint" />
          </mxGeometry>
        </mxCell>
        <mxCell id="WR9q7CcePwHXOaSWGCf5-187" value="" style="edgeStyle=elbowEdgeStyle;elbow=horizontal;endArrow=classic;html=1;curved=0;rounded=0;endSize=8;startSize=8;exitX=0.991;exitY=0.713;exitDx=0;exitDy=0;exitPerimeter=0;entryX=0;entryY=0.5;entryDx=0;entryDy=0;" edge="1" parent="1" source="WR9q7CcePwHXOaSWGCf5-118" target="WR9q7CcePwHXOaSWGCf5-169">
          <mxGeometry width="50" height="50" relative="1" as="geometry">
            <mxPoint x="2636" y="739" as="sourcePoint" />
            <mxPoint x="2686" y="689" as="targetPoint" />
          </mxGeometry>
        </mxCell>
        <mxCell id="WR9q7CcePwHXOaSWGCf5-215" style="edgeStyle=orthogonalEdgeStyle;rounded=0;orthogonalLoop=1;jettySize=auto;html=1;entryX=0;entryY=0.5;entryDx=0;entryDy=0;exitX=1.027;exitY=0.204;exitDx=0;exitDy=0;exitPerimeter=0;strokeColor=#0000FF;" edge="1" parent="1" source="WR9q7CcePwHXOaSWGCf5-188" target="WR9q7CcePwHXOaSWGCf5-145">
          <mxGeometry relative="1" as="geometry">
            <Array as="points">
              <mxPoint x="3026" y="354" />
              <mxPoint x="3026" y="1089" />
              <mxPoint x="1866" y="1089" />
              <mxPoint x="1866" y="822" />
            </Array>
          </mxGeometry>
        </mxCell>
        <mxCell id="WR9q7CcePwHXOaSWGCf5-224" style="edgeStyle=orthogonalEdgeStyle;rounded=0;orthogonalLoop=1;jettySize=auto;html=1;entryX=0;entryY=0.25;entryDx=0;entryDy=0;exitX=1.093;exitY=0.949;exitDx=0;exitDy=0;exitPerimeter=0;" edge="1" parent="1" source="WR9q7CcePwHXOaSWGCf5-188" target="WR9q7CcePwHXOaSWGCf5-145">
          <mxGeometry relative="1" as="geometry">
            <Array as="points">
              <mxPoint x="2906" y="954" />
              <mxPoint x="2906" y="1109" />
              <mxPoint x="1846" y="1109" />
              <mxPoint x="1846" y="807" />
            </Array>
          </mxGeometry>
        </mxCell>
        <mxCell id="WR9q7CcePwHXOaSWGCf5-188" value="" style="rounded=0;whiteSpace=wrap;html=1;" vertex="1" parent="1">
          <mxGeometry x="2846" y="190" width="30" height="805" as="geometry" />
        </mxCell>
        <mxCell id="WR9q7CcePwHXOaSWGCf5-190" style="edgeStyle=orthogonalEdgeStyle;rounded=0;orthogonalLoop=1;jettySize=auto;html=1;entryX=0.013;entryY=0.594;entryDx=0;entryDy=0;entryPerimeter=0;" edge="1" parent="1" source="WR9q7CcePwHXOaSWGCf5-173" target="WR9q7CcePwHXOaSWGCf5-188">
          <mxGeometry relative="1" as="geometry" />
        </mxCell>
        <mxCell id="WR9q7CcePwHXOaSWGCf5-191" value="" style="edgeStyle=elbowEdgeStyle;elbow=horizontal;endArrow=classic;html=1;curved=0;rounded=0;endSize=8;startSize=8;exitX=1.003;exitY=0.45;exitDx=0;exitDy=0;exitPerimeter=0;entryX=-0.084;entryY=0.293;entryDx=0;entryDy=0;entryPerimeter=0;" edge="1" parent="1" source="WR9q7CcePwHXOaSWGCf5-118" target="WR9q7CcePwHXOaSWGCf5-188">
          <mxGeometry width="50" height="50" relative="1" as="geometry">
            <mxPoint x="2776" y="589" as="sourcePoint" />
            <mxPoint x="2826" y="539" as="targetPoint" />
            <Array as="points">
              <mxPoint x="2516" y="549" />
            </Array>
          </mxGeometry>
        </mxCell>
        <mxCell id="WR9q7CcePwHXOaSWGCf5-225" style="edgeStyle=orthogonalEdgeStyle;rounded=0;orthogonalLoop=1;jettySize=auto;html=1;entryX=0;entryY=0.75;entryDx=0;entryDy=0;exitX=0.5;exitY=0;exitDx=0;exitDy=0;" edge="1" parent="1" source="WR9q7CcePwHXOaSWGCf5-192" target="WR9q7CcePwHXOaSWGCf5-145">
          <mxGeometry relative="1" as="geometry">
            <Array as="points">
              <mxPoint x="2996" y="448" />
              <mxPoint x="2996" y="1069" />
              <mxPoint x="1886" y="1069" />
              <mxPoint x="1886" y="837" />
            </Array>
          </mxGeometry>
        </mxCell>
        <mxCell id="WR9q7CcePwHXOaSWGCf5-192" value="M&lt;br&gt;U&lt;br&gt;X&lt;div&gt;1&lt;/div&gt;" style="shape=trapezoid;perimeter=trapezoidPerimeter;whiteSpace=wrap;html=1;rotation=90;horizontal=0;" vertex="1" parent="1">
          <mxGeometry x="2916" y="434.5" width="80" height="27.5" as="geometry" />
        </mxCell>
        <mxCell id="WR9q7CcePwHXOaSWGCf5-193" value="" style="endArrow=classic;html=1;rounded=0;exitX=1.038;exitY=0.294;exitDx=0;exitDy=0;exitPerimeter=0;entryX=0.25;entryY=1;entryDx=0;entryDy=0;" edge="1" parent="1" source="WR9q7CcePwHXOaSWGCf5-188" target="WR9q7CcePwHXOaSWGCf5-192">
          <mxGeometry width="50" height="50" relative="1" as="geometry">
            <mxPoint x="2926" y="569" as="sourcePoint" />
            <mxPoint x="2976" y="519" as="targetPoint" />
          </mxGeometry>
        </mxCell>
        <mxCell id="WR9q7CcePwHXOaSWGCf5-194" value="" style="edgeStyle=elbowEdgeStyle;elbow=horizontal;endArrow=classic;html=1;curved=0;rounded=0;endSize=8;startSize=8;exitX=1.092;exitY=0.594;exitDx=0;exitDy=0;exitPerimeter=0;entryX=0.75;entryY=1;entryDx=0;entryDy=0;" edge="1" parent="1" source="WR9q7CcePwHXOaSWGCf5-188" target="WR9q7CcePwHXOaSWGCf5-192">
          <mxGeometry width="50" height="50" relative="1" as="geometry">
            <mxPoint x="2926" y="569" as="sourcePoint" />
            <mxPoint x="2976" y="519" as="targetPoint" />
          </mxGeometry>
        </mxCell>
        <mxCell id="WR9q7CcePwHXOaSWGCf5-195" value="" style="edgeStyle=elbowEdgeStyle;elbow=horizontal;endArrow=classic;html=1;curved=0;rounded=0;endSize=8;startSize=8;exitX=0.711;exitY=0.391;exitDx=0;exitDy=0;exitPerimeter=0;entryX=1;entryY=0.5;entryDx=0;entryDy=0;" edge="1" parent="1" target="WR9q7CcePwHXOaSWGCf5-162">
          <mxGeometry width="50" height="50" relative="1" as="geometry">
            <mxPoint x="2346" y="573.7499999999999" as="sourcePoint" />
            <mxPoint x="2374.9" y="897.28" as="targetPoint" />
            <Array as="points">
              <mxPoint x="2376" y="739" />
            </Array>
          </mxGeometry>
        </mxCell>
        <mxCell id="WR9q7CcePwHXOaSWGCf5-196" value="" style="endArrow=classic;html=1;rounded=0;exitX=1.03;exitY=0.207;exitDx=0;exitDy=0;exitPerimeter=0;entryX=-0.059;entryY=0.209;entryDx=0;entryDy=0;entryPerimeter=0;strokeColor=#0000FF;" edge="1" parent="1" source="WR9q7CcePwHXOaSWGCf5-113" target="WR9q7CcePwHXOaSWGCf5-118">
          <mxGeometry width="50" height="50" relative="1" as="geometry">
            <mxPoint x="2154" y="361.29" as="sourcePoint" />
            <mxPoint x="2234" y="361.29" as="targetPoint" />
          </mxGeometry>
        </mxCell>
        <mxCell id="WR9q7CcePwHXOaSWGCf5-197" value="" style="endArrow=classic;html=1;rounded=0;exitX=1.085;exitY=0.205;exitDx=0;exitDy=0;exitPerimeter=0;entryX=-0.032;entryY=0.205;entryDx=0;entryDy=0;entryPerimeter=0;strokeColor=#0000FF;" edge="1" parent="1" source="WR9q7CcePwHXOaSWGCf5-118" target="WR9q7CcePwHXOaSWGCf5-188">
          <mxGeometry width="50" height="50" relative="1" as="geometry">
            <mxPoint x="2536" y="328.31" as="sourcePoint" />
            <mxPoint x="2865.13" y="329.7" as="targetPoint" />
          </mxGeometry>
        </mxCell>
        <mxCell id="WR9q7CcePwHXOaSWGCf5-198" value="" style="endArrow=classic;html=1;rounded=0;exitX=1.061;exitY=0.237;exitDx=0;exitDy=0;entryX=-0.059;entryY=0.238;entryDx=0;entryDy=0;entryPerimeter=0;strokeColor=#0000FF;exitPerimeter=0;" edge="1" parent="1">
          <mxGeometry width="50" height="50" relative="1" as="geometry">
            <mxPoint x="2127.83" y="382.78499999999997" as="sourcePoint" />
            <mxPoint x="2454.23" y="383.59000000000003" as="targetPoint" />
          </mxGeometry>
        </mxCell>
        <mxCell id="WR9q7CcePwHXOaSWGCf5-199" value="" style="endArrow=classic;html=1;rounded=0;exitX=1.032;exitY=0.259;exitDx=0;exitDy=0;exitPerimeter=0;entryX=0.061;entryY=0.261;entryDx=0;entryDy=0;entryPerimeter=0;strokeColor=#0000FF;" edge="1" parent="1" source="WR9q7CcePwHXOaSWGCf5-113" target="WR9q7CcePwHXOaSWGCf5-118">
          <mxGeometry width="50" height="50" relative="1" as="geometry">
            <mxPoint x="2157" y="387" as="sourcePoint" />
            <mxPoint x="2484" y="388" as="targetPoint" />
          </mxGeometry>
        </mxCell>
        <mxCell id="WR9q7CcePwHXOaSWGCf5-201" value="" style="edgeStyle=elbowEdgeStyle;elbow=horizontal;endArrow=classic;html=1;curved=0;rounded=0;endSize=8;startSize=8;exitX=1.053;exitY=0.272;exitDx=0;exitDy=0;exitPerimeter=0;entryX=0;entryY=0.5;entryDx=0;entryDy=0;strokeColor=#0000FF;" edge="1" parent="1" source="WR9q7CcePwHXOaSWGCf5-113" target="WR9q7CcePwHXOaSWGCf5-181">
          <mxGeometry width="50" height="50" relative="1" as="geometry">
            <mxPoint x="2276" y="449" as="sourcePoint" />
            <mxPoint x="2326" y="399" as="targetPoint" />
            <Array as="points">
              <mxPoint x="2406" y="469" />
            </Array>
          </mxGeometry>
        </mxCell>
        <mxCell id="WR9q7CcePwHXOaSWGCf5-202" value="" style="edgeStyle=elbowEdgeStyle;elbow=horizontal;endArrow=classic;html=1;curved=0;rounded=0;endSize=8;startSize=8;exitX=1.053;exitY=0.312;exitDx=0;exitDy=0;exitPerimeter=0;entryX=0;entryY=0.25;entryDx=0;entryDy=0;strokeColor=#0000FF;" edge="1" parent="1" source="WR9q7CcePwHXOaSWGCf5-113" target="WR9q7CcePwHXOaSWGCf5-151">
          <mxGeometry width="50" height="50" relative="1" as="geometry">
            <mxPoint x="2196" y="459" as="sourcePoint" />
            <mxPoint x="2246" y="409" as="targetPoint" />
            <Array as="points">
              <mxPoint x="2221" y="479" />
            </Array>
          </mxGeometry>
        </mxCell>
        <mxCell id="WR9q7CcePwHXOaSWGCf5-203" value="" style="edgeStyle=elbowEdgeStyle;elbow=horizontal;endArrow=classic;html=1;curved=0;rounded=0;endSize=8;startSize=8;exitX=1.053;exitY=0.295;exitDx=0;exitDy=0;exitPerimeter=0;entryX=0.372;entryY=0.12;entryDx=0;entryDy=0;entryPerimeter=0;strokeColor=#0000FF;" edge="1" parent="1" source="WR9q7CcePwHXOaSWGCf5-113" target="WR9q7CcePwHXOaSWGCf5-116">
          <mxGeometry width="50" height="50" relative="1" as="geometry">
            <mxPoint x="2196" y="459" as="sourcePoint" />
            <mxPoint x="2246" y="409" as="targetPoint" />
            <Array as="points">
              <mxPoint x="2313" y="479" />
            </Array>
          </mxGeometry>
        </mxCell>
        <mxCell id="WR9q7CcePwHXOaSWGCf5-204" value="" style="edgeStyle=elbowEdgeStyle;elbow=horizontal;endArrow=classic;html=1;curved=0;rounded=0;endSize=8;startSize=8;exitX=0.989;exitY=0.33;exitDx=0;exitDy=0;exitPerimeter=0;entryX=0;entryY=0.5;entryDx=0;entryDy=0;strokeColor=#0000FF;" edge="1" parent="1" source="WR9q7CcePwHXOaSWGCf5-113" target="WR9q7CcePwHXOaSWGCf5-153">
          <mxGeometry width="50" height="50" relative="1" as="geometry">
            <mxPoint x="2196" y="459" as="sourcePoint" />
            <mxPoint x="2246" y="409" as="targetPoint" />
            <Array as="points">
              <mxPoint x="2238" y="539" />
            </Array>
          </mxGeometry>
        </mxCell>
        <mxCell id="WR9q7CcePwHXOaSWGCf5-205" value="" style="edgeStyle=elbowEdgeStyle;elbow=horizontal;endArrow=classic;html=1;curved=0;rounded=0;endSize=8;startSize=8;exitX=1.053;exitY=0.344;exitDx=0;exitDy=0;exitPerimeter=0;entryX=0;entryY=0.25;entryDx=0;entryDy=0;strokeColor=#0000FF;" edge="1" parent="1" source="WR9q7CcePwHXOaSWGCf5-113" target="WR9q7CcePwHXOaSWGCf5-162">
          <mxGeometry width="50" height="50" relative="1" as="geometry">
            <mxPoint x="2276" y="629" as="sourcePoint" />
            <mxPoint x="2326" y="579" as="targetPoint" />
            <Array as="points">
              <mxPoint x="2146" y="679" />
            </Array>
          </mxGeometry>
        </mxCell>
        <mxCell id="WR9q7CcePwHXOaSWGCf5-206" value="" style="edgeStyle=elbowEdgeStyle;elbow=horizontal;endArrow=classic;html=1;curved=0;rounded=0;endSize=8;startSize=8;exitX=0.989;exitY=0.362;exitDx=0;exitDy=0;exitPerimeter=0;entryX=0;entryY=0.5;entryDx=0;entryDy=0;strokeColor=#0000FF;" edge="1" parent="1" source="WR9q7CcePwHXOaSWGCf5-113" target="WR9q7CcePwHXOaSWGCf5-162">
          <mxGeometry width="50" height="50" relative="1" as="geometry">
            <mxPoint x="2276" y="629" as="sourcePoint" />
            <mxPoint x="2326" y="579" as="targetPoint" />
            <Array as="points">
              <mxPoint x="2136" y="689" />
            </Array>
          </mxGeometry>
        </mxCell>
        <mxCell id="WR9q7CcePwHXOaSWGCf5-207" value="" style="edgeStyle=elbowEdgeStyle;elbow=horizontal;endArrow=classic;html=1;curved=0;rounded=0;endSize=8;startSize=8;exitX=1.043;exitY=0.24;exitDx=0;exitDy=0;exitPerimeter=0;entryX=0.5;entryY=0;entryDx=0;entryDy=0;strokeColor=#0000FF;" edge="1" parent="1" source="WR9q7CcePwHXOaSWGCf5-118" target="WR9q7CcePwHXOaSWGCf5-172">
          <mxGeometry width="50" height="50" relative="1" as="geometry">
            <mxPoint x="2566" y="399" as="sourcePoint" />
            <mxPoint x="2616" y="349" as="targetPoint" />
            <Array as="points">
              <mxPoint x="2691" y="429" />
            </Array>
          </mxGeometry>
        </mxCell>
        <mxCell id="WR9q7CcePwHXOaSWGCf5-208" value="" style="edgeStyle=elbowEdgeStyle;elbow=horizontal;endArrow=classic;html=1;curved=0;rounded=0;endSize=8;startSize=8;exitX=1.043;exitY=0.259;exitDx=0;exitDy=0;exitPerimeter=0;entryX=0.5;entryY=0;entryDx=0;entryDy=0;strokeColor=#0000FF;" edge="1" parent="1" source="WR9q7CcePwHXOaSWGCf5-118" target="WR9q7CcePwHXOaSWGCf5-170">
          <mxGeometry width="50" height="50" relative="1" as="geometry">
            <mxPoint x="2496" y="399" as="sourcePoint" />
            <mxPoint x="2576" y="399" as="targetPoint" />
            <Array as="points">
              <mxPoint x="2601" y="439" />
            </Array>
          </mxGeometry>
        </mxCell>
        <mxCell id="WR9q7CcePwHXOaSWGCf5-209" value="" style="endArrow=classic;html=1;rounded=0;exitX=1.024;exitY=0.219;exitDx=0;exitDy=0;exitPerimeter=0;strokeColor=#0000FF;" edge="1" parent="1" source="WR9q7CcePwHXOaSWGCf5-113">
          <mxGeometry width="50" height="50" relative="1" as="geometry">
            <mxPoint x="2137" y="367" as="sourcePoint" />
            <mxPoint x="2456" y="368" as="targetPoint" />
          </mxGeometry>
        </mxCell>
        <mxCell id="WR9q7CcePwHXOaSWGCf5-210" value="" style="endArrow=classic;html=1;rounded=0;exitX=1.043;exitY=0.225;exitDx=0;exitDy=0;exitPerimeter=0;entryX=0.032;entryY=0.224;entryDx=0;entryDy=0;entryPerimeter=0;strokeColor=#0000FF;" edge="1" parent="1" source="WR9q7CcePwHXOaSWGCf5-118" target="WR9q7CcePwHXOaSWGCf5-188">
          <mxGeometry width="50" height="50" relative="1" as="geometry">
            <mxPoint x="2506" y="371" as="sourcePoint" />
            <mxPoint x="2833" y="372" as="targetPoint" />
          </mxGeometry>
        </mxCell>
        <mxCell id="WR9q7CcePwHXOaSWGCf5-211" value="" style="edgeStyle=elbowEdgeStyle;elbow=horizontal;endArrow=classic;html=1;curved=0;rounded=0;endSize=8;startSize=8;exitX=1.056;exitY=0.224;exitDx=0;exitDy=0;exitPerimeter=0;entryX=0;entryY=0.5;entryDx=0;entryDy=0;" edge="1" parent="1" source="WR9q7CcePwHXOaSWGCf5-188" target="WR9q7CcePwHXOaSWGCf5-192">
          <mxGeometry width="50" height="50" relative="1" as="geometry">
            <mxPoint x="2976" y="479" as="sourcePoint" />
            <mxPoint x="3026" y="429" as="targetPoint" />
            <Array as="points">
              <mxPoint x="2956" y="389" />
            </Array>
          </mxGeometry>
        </mxCell>
        <mxCell id="WR9q7CcePwHXOaSWGCf5-219" value="" style="endArrow=classic;html=1;rounded=0;exitX=1.08;exitY=0.943;exitDx=0;exitDy=0;exitPerimeter=0;entryX=-0.04;entryY=0.945;entryDx=0;entryDy=0;entryPerimeter=0;" edge="1" parent="1" source="WR9q7CcePwHXOaSWGCf5-113" target="WR9q7CcePwHXOaSWGCf5-118">
          <mxGeometry width="50" height="50" relative="1" as="geometry">
            <mxPoint x="2356" y="909" as="sourcePoint" />
            <mxPoint x="2406" y="859" as="targetPoint" />
          </mxGeometry>
        </mxCell>
        <mxCell id="WR9q7CcePwHXOaSWGCf5-220" value="" style="endArrow=classic;html=1;rounded=0;exitX=1.08;exitY=0.943;exitDx=0;exitDy=0;exitPerimeter=0;" edge="1" parent="1">
          <mxGeometry width="50" height="50" relative="1" as="geometry">
            <mxPoint x="2486" y="949" as="sourcePoint" />
            <mxPoint x="2846" y="952" as="targetPoint" />
          </mxGeometry>
        </mxCell>
        <mxCell id="WR9q7CcePwHXOaSWGCf5-226" value="[0:7] Opcode" style="text;html=1;align=center;verticalAlign=middle;whiteSpace=wrap;rounded=0;" vertex="1" parent="1">
          <mxGeometry x="1806" y="337" width="80" height="30" as="geometry" />
        </mxCell>
        <mxCell id="WR9q7CcePwHXOaSWGCf5-227" value="[12:14] funct3" style="text;html=1;align=center;verticalAlign=middle;whiteSpace=wrap;rounded=0;" vertex="1" parent="1">
          <mxGeometry x="1806" y="367" width="80" height="30" as="geometry" />
        </mxCell>
        <mxCell id="WR9q7CcePwHXOaSWGCf5-230" value="" style="edgeStyle=orthogonalEdgeStyle;rounded=0;orthogonalLoop=1;jettySize=auto;html=1;entryX=1;entryY=0.75;entryDx=0;entryDy=0;" edge="1" parent="1" source="WR9q7CcePwHXOaSWGCf5-100" target="WR9q7CcePwHXOaSWGCf5-229">
          <mxGeometry relative="1" as="geometry">
            <mxPoint x="1780" y="589" as="sourcePoint" />
            <mxPoint x="1886" y="417" as="targetPoint" />
            <Array as="points">
              <mxPoint x="1806" y="589" />
              <mxPoint x="1806" y="412" />
            </Array>
          </mxGeometry>
        </mxCell>
        <mxCell id="WR9q7CcePwHXOaSWGCf5-229" value="[31:25] funct7" style="text;html=1;align=center;verticalAlign=middle;whiteSpace=wrap;rounded=0;" vertex="1" parent="1">
          <mxGeometry x="1806" y="389" width="80" height="30" as="geometry" />
        </mxCell>
        <mxCell id="WR9q7CcePwHXOaSWGCf5-231" value="INSTRUCTION [31:0]" style="text;html=1;align=center;verticalAlign=middle;whiteSpace=wrap;rounded=0;" vertex="1" parent="1">
          <mxGeometry x="1656" y="558" width="60" height="30" as="geometry" />
        </mxCell>
        <mxCell id="WR9q7CcePwHXOaSWGCf5-232" value="PC [31:0]" style="text;html=1;align=center;verticalAlign=middle;whiteSpace=wrap;rounded=0;" vertex="1" parent="1">
          <mxGeometry x="1686" y="479" width="60" height="30" as="geometry" />
        </mxCell>
        <mxCell id="WR9q7CcePwHXOaSWGCf5-233" value="PC_PLUS_4[31:0]" style="text;html=1;align=center;verticalAlign=middle;whiteSpace=wrap;rounded=0;" vertex="1" parent="1">
          <mxGeometry x="1806" y="262.75" width="60" height="30" as="geometry" />
        </mxCell>
        <mxCell id="WR9q7CcePwHXOaSWGCf5-235" value="&lt;b&gt;&lt;font style=&quot;font-size: 14px;&quot;&gt;IF&lt;/font&gt;&lt;/b&gt;" style="text;html=1;align=center;verticalAlign=middle;whiteSpace=wrap;rounded=0;" vertex="1" parent="1">
          <mxGeometry x="1410" y="100" width="60" height="30" as="geometry" />
        </mxCell>
        <mxCell id="WR9q7CcePwHXOaSWGCf5-236" value="&lt;b&gt;&lt;font style=&quot;font-size: 14px;&quot;&gt;ID&lt;/font&gt;&lt;/b&gt;" style="text;html=1;align=center;verticalAlign=middle;whiteSpace=wrap;rounded=0;" vertex="1" parent="1">
          <mxGeometry x="1810" y="100" width="60" height="30" as="geometry" />
        </mxCell>
        <mxCell id="WR9q7CcePwHXOaSWGCf5-237" value="&lt;b&gt;&lt;font style=&quot;font-size: 14px;&quot;&gt;EX&lt;/font&gt;&lt;/b&gt;" style="text;html=1;align=center;verticalAlign=middle;whiteSpace=wrap;rounded=0;" vertex="1" parent="1">
          <mxGeometry x="2120" y="100" width="60" height="30" as="geometry" />
        </mxCell>
        <mxCell id="WR9q7CcePwHXOaSWGCf5-238" value="&lt;b&gt;&lt;font style=&quot;font-size: 14px;&quot;&gt;MEM&lt;/font&gt;&lt;/b&gt;" style="text;html=1;align=center;verticalAlign=middle;whiteSpace=wrap;rounded=0;" vertex="1" parent="1">
          <mxGeometry x="2530" y="100" width="60" height="30" as="geometry" />
        </mxCell>
        <mxCell id="WR9q7CcePwHXOaSWGCf5-239" value="&lt;b&gt;&lt;font style=&quot;font-size: 14px;&quot;&gt;WB&lt;/font&gt;&lt;/b&gt;" style="text;html=1;align=center;verticalAlign=middle;whiteSpace=wrap;rounded=0;" vertex="1" parent="1">
          <mxGeometry x="2810" y="100" width="60" height="30" as="geometry" />
        </mxCell>
        <mxCell id="WR9q7CcePwHXOaSWGCf5-241" value="" style="endArrow=classic;html=1;rounded=0;" edge="1" parent="1" source="WR9q7CcePwHXOaSWGCf5-98" target="WR9q7CcePwHXOaSWGCf5-98">
          <mxGeometry width="50" height="50" relative="1" as="geometry">
            <mxPoint x="1810" y="880" as="sourcePoint" />
            <mxPoint x="1860" y="830" as="targetPoint" />
          </mxGeometry>
        </mxCell>
        <mxCell id="WR9q7CcePwHXOaSWGCf5-243" value="" style="endArrow=classic;html=1;rounded=0;" edge="1" parent="1">
          <mxGeometry width="50" height="50" relative="1" as="geometry">
            <mxPoint x="1976" y="899" as="sourcePoint" />
            <mxPoint x="1976" y="859" as="targetPoint" />
          </mxGeometry>
        </mxCell>
        <mxCell id="WR9q7CcePwHXOaSWGCf5-244" value="" style="endArrow=classic;html=1;rounded=0;" edge="1" parent="1">
          <mxGeometry width="50" height="50" relative="1" as="geometry">
            <mxPoint x="1999.62" y="900" as="sourcePoint" />
            <mxPoint x="1999.62" y="860" as="targetPoint" />
          </mxGeometry>
        </mxCell>
        <mxCell id="WR9q7CcePwHXOaSWGCf5-245" value="CLK" style="text;html=1;strokeColor=none;fillColor=none;align=right;verticalAlign=middle;whiteSpace=wrap;rounded=0;fontSize=10;" vertex="1" parent="1">
          <mxGeometry x="1946" y="899" width="40" height="20" as="geometry" />
        </mxCell>
        <mxCell id="WR9q7CcePwHXOaSWGCf5-246" value="CLK" style="text;html=1;strokeColor=none;fillColor=none;align=right;verticalAlign=middle;whiteSpace=wrap;rounded=0;fontSize=10;" vertex="1" parent="1">
          <mxGeometry x="1426" y="317.5" width="40" height="20" as="geometry" />
        </mxCell>
        <mxCell id="WR9q7CcePwHXOaSWGCf5-247" value="RESET" style="text;html=1;strokeColor=none;fillColor=none;align=right;verticalAlign=middle;whiteSpace=wrap;rounded=0;fontSize=10;" vertex="1" parent="1">
          <mxGeometry x="1985" y="899" width="40" height="20" as="geometry" />
        </mxCell>
      </root>
    </mxGraphModel>
  </diagram>
</mxfile>
